<?xml version="1.0" encoding="utf-8"?>
<!-- Generator: Adobe Illustrator 25.3.1, SVG Export Plug-In . SVG Version: 6.00 Build 0)  -->
<svg version="1.1" id="Layer_1" xmlns="http://www.w3.org/2000/svg" xmlns:xlink="http://www.w3.org/1999/xlink" x="0px" y="0px"
	 viewBox="0 0 819.6 1148.2" style="enable-background:new 0 0 819.6 1148.2;" xml:space="preserve">
<style type="text/css">
	.st0{display:none;}
	.st1{fill:#A3A3A3;stroke:#575756;stroke-width:19;stroke-linecap:round;stroke-linejoin:round;stroke-miterlimit:10;}
	.st2{fill:none;stroke:#575756;stroke-width:19;stroke-linecap:round;stroke-linejoin:round;stroke-miterlimit:10;}
	.st3{fill:none;stroke:#575756;stroke-width:11;stroke-miterlimit:10;}
	.st4{fill:#D9D9D9;stroke:#575756;stroke-width:11;stroke-miterlimit:10;}
	.st5{fill:#575756;}
	.st6{fill:none;stroke:#575756;stroke-width:8;stroke-miterlimit:10;}
	.st7{fill:none;stroke:#575756;stroke-width:7;stroke-miterlimit:10;}
	.st8{fill:#FF9B69;stroke:#575756;stroke-width:11;stroke-miterlimit:10;}
	.st9{fill:#EB5F0E;stroke:#575756;stroke-width:11;stroke-miterlimit:10;}
	.st10{fill:#FFFFFF;stroke:#575756;stroke-width:7;stroke-miterlimit:10;}
	.st11{fill:none;stroke:#575756;stroke-width:3;stroke-miterlimit:10;}
	.st12{fill:none;stroke:#575756;stroke-width:3;stroke-linecap:round;stroke-linejoin:round;stroke-miterlimit:10;}
	.st13{fill:#575756;stroke:#575756;stroke-miterlimit:10;}
	.st14{fill:#575757;}
	.st15{fill:#FFFFFF;}
</style>
<g id="Capa_1" class="st0">
	
		<image style="display:inline;overflow:visible;enable-background:new    ;" width="1668" height="2388" xlink:href="4191F61297C6E1A8.jpeg"  transform="matrix(1.1291 0 0 1.1291 -557.8121 -820.5357)">
	</image>
</g>
<g id="Personaje">
	<g>
		<path class="st1" d="M116.6,158.4c0,0,444,10.5,535.5,88.5s148.1,154.8,153,222c-195,391.5-186,574.5-186,574.5l-115.5,73.5
			c0,0-196.6,54-403.6-15C16.5,860.4,9.7,684.4,20.8,527.6C37.7,290.1,116.6,158.4,116.6,158.4z"/>
		<path class="st2" d="M659.9,253.7c0,0-191.7,447.2-148.5,861.5"/>
		<polyline class="st3" points="20.8,527.6 550.1,592.6 708.2,697.7 		"/>
		<path class="st4" d="M77.6,567.9l414,58.5c0,0-70.5,285-37.5,468c-162,46.5-333-15-333-15S31.1,644.4,77.6,567.9z"/>
		<g>
			<g>
				<path class="st5" d="M244,1110.4c-18.1-114-17.2-249-13.2-342.2c4.3-100.8,13-175.7,13.1-176.5l26.8,3.1
					c-0.3,2.9-34.1,297.1-0.1,511.3L244,1110.4z"/>
			</g>
		</g>
		<line class="st6" x1="65.4" y1="630.3" x2="479.6" y2="691.1"/>
		<line class="st6" x1="65.4" y1="703.6" x2="466.9" y2="760.1"/>
		<line class="st6" x1="74.7" y1="772.6" x2="457.6" y2="825.2"/>
		<line class="st7" x1="79.6" y1="845.5" x2="449.9" y2="893"/>
		<line class="st7" x1="91.3" y1="924.9" x2="445.7" y2="965"/>
		<line class="st7" x1="104.2" y1="1000.7" x2="445.7" y2="1032.4"/>
		<line class="st7" x1="664.1" y1="390.9" x2="746.6" y2="489.9"/>
		<line class="st7" x1="646.8" y1="422.7" x2="729.3" y2="521.7"/>
		<line class="st7" x1="625.7" y1="461.3" x2="708.2" y2="560.3"/>
		<circle class="st5" cx="584" cy="579.9" r="11.9"/>
		<circle class="st5" cx="688" cy="651.6" r="11.9"/>
		<circle class="st5" cx="669.4" cy="709.6" r="11.9"/>
		<circle class="st5" cx="566.5" cy="660.7" r="11.9"/>
		<g>
			<g>
				<path class="st8" d="M384,134.9c0,0-119,9.3-35.7,100s214.5,4.9,214.5,4.9L384,134.9z"/>
				<path class="st9" d="M533.7,26.4C453.5,26.4,388,63.5,384,134.9c139,141.7,253.7,103.6,266.9,110.5c20.4-23,32.6-52.2,32.6-84
					C683.6,86.8,616.5,26.4,533.7,26.4z"/>
				<path class="st10" d="M680.5,201.4c-5.2,21.8-10.5,41.2-20.7,52.2c-36.1,0-65.1-6.7-65.1-6.7c15-133.8-27.3-217-27.3-217
					s14.4-0.2,40.1,11.5C626.8,50.2,710.1,76.8,680.5,201.4z"/>
			</g>
			<line class="st11" x1="582" y1="66.7" x2="598.5" y2="39.3"/>
			<line class="st11" x1="590.3" y1="98.8" x2="627.8" y2="54.8"/>
			<line class="st11" x1="596.4" y1="139.6" x2="661.3" y2="76.8"/>
			<line class="st11" x1="596.4" y1="188.4" x2="678.6" y2="115"/>
			<line class="st11" x1="595.7" y1="234.9" x2="688" y2="154.7"/>
			<path class="st12" d="M573.3,29.9c0,0,84.9,90.6,48,219.7l63.5-61.1"/>
			<path class="st11" d="M614.8,47c0,0,85.9,82.5,38,202.6"/>
			<ellipse class="st5" cx="576.2" cy="17.8" rx="13.4" ry="8.6"/>
		</g>
	</g>
	<g>
		<g>
			<path class="st5" d="M261.7,237.8c-22.9-13.6-55.3,16.4-72.3,66.9S177,407.3,200,420.9c22.9,13.6,55.3-16.4,72.3-66.9
				S284.6,251.4,261.7,237.8z M241.3,337.1c-5.3,18.7-15,31.4-21.6,28.2s-7.7-20.9-2.3-39.6s15-31.4,21.6-28.2
				S246.7,318.4,241.3,337.1z"/>
			<path class="st5" d="M446.2,276.8c-23.2-13.1-54.9,17.6-70.8,68.5c-15.9,50.9-10,102.8,13.2,115.9s54.9-17.6,70.8-68.5
				C475.3,341.8,469.4,289.9,446.2,276.8z M428.1,376.6c-4.9,18.8-14.3,31.7-21,28.7c-6.7-3-8.1-20.7-3.2-39.6
				c4.9-18.8,14.3-31.7,21-28.7S433,357.7,428.1,376.6z"/>
			<path class="st13" d="M259.7,440.7l64.3,15c0,0-20.4,82.5-47.2,75S259.7,440.7,259.7,440.7z"/>
		</g>
	</g>
</g>
<g id="Capa_4">
	<g>
		<g>
			<path class="st14" d="M555.1,72c-14.4,17.5-27.8,35.4-38.3,55.4c-10.5,19.9-18.1,40.8-24.8,62.3c-2.8-1.4-5.7-2.7-8.4-4.1
				c-10.5-5.4-20.7-11.3-30.4-18.2c-5.8-4.1-11.5-8.4-17.3-12.6c-3-2.2-5.9-4.3-8.8-6.6c-0.3-0.2-0.5-0.8-0.4-1.1
				c2.3-7.6,4.6-15.2,7-22.8c2.6-8.4,5.3-16.8,9.1-24.8c2.9-5.9,5.9-11.8,9.3-17.5c3.5-5.8,7.6-11.3,11.4-16.9
				c0.3-0.4,0.9-0.9,1.4-1c4.6-0.9,9.3-1.8,14-2.7c6-1,12.1-1.4,18.2-1.4c6.1-0.1,12.2,0.4,18.2,1.1C528.9,62.9,542,66.9,555.1,72z
				 M519.3,109.8c-0.4-0.2-0.7-0.5-1.1-0.5c-5.4-1.3-10.8-2.5-16.2-3.7c-0.7-0.2-1.1,0-1.4,0.6c-4,7.7-8,15.3-12,23
				c-0.7,1.3-0.6,1.6,0.8,1.9c4.9,1.5,9.9,2.9,14.9,4.4c1,0.3,1.3,0,1.8-0.8c4.2-7.9,8.5-15.8,12.8-23.8
				C519,110.5,519.1,110.3,519.3,109.8z M520.9,82.7c0.5-0.8,0.9-1.4,1.2-2c0.4-0.9,1-1.2,2-0.9c4,1.1,8,2.1,12,3.2
				c0.8,0.2,1.2,0.1,1.7-0.6c0.9-1.4,1.9-2.7,2.9-4c0.9-1.2,0.9-1.3-0.5-1.7c-5.8-1.6-11.7-3.1-17.5-4.7c-1.1-0.3-1.7,0-2.3,0.9
				c-2,3.4-4.1,6.7-6.2,10.1c-0.8,1.3-1.6,2.6-2.4,4c4.6,1.1,9,2.1,13.7,3.1c-0.5,0.9-0.9,1.5-1.2,2.1c-0.5,1-1.1,1.1-2.1,0.9
				c-3.8-0.9-7.6-1.7-11.3-2.6c-0.8-0.2-1.3,0-1.6,0.7c-0.8,1.5-1.7,3-2.6,4.4c-0.5,0.8-0.4,1.1,0.6,1.4c5.7,1.2,11.3,2.5,16.9,3.8
				c0.7,0.2,1,0,1.4-0.6c2.1-3.1,4.2-6.3,6.4-9.4c1-1.5,2-2.9,3.2-4.7C530.2,85,525.7,83.9,520.9,82.7z M488.8,175.1
				c0.2-0.5,0.4-1,0.6-1.4c2.2-5.6,4.4-11.3,6.6-16.9c1.4-3.5,3-6.9,4.5-10.4c0.4-1,0.3-1.5-0.8-1.7c-1-0.3-2.1-0.6-3.1-1
				c-0.7-0.2-1-0.1-1.3,0.6c-1.2,2.7-2.5,5.4-3.7,8.1c-0.3,0.7-0.6,0.9-1.3,0.6c-1.6-0.6-3.1-1.2-4.7-1.8c-1.4-0.5-1.5-0.6-0.8-2
				c1.1-2.3,2.2-4.6,3.4-6.8c0.5-0.9,0.3-1.4-0.8-1.7c-0.9-0.2-1.8-0.6-2.7-1c-0.8-0.4-1.3-0.2-1.6,0.7c-2.1,4.8-4.3,9.6-6.6,14.4
				c-0.4,0.8-0.1,1.2,0.6,1.5c2.7,1.1,5.5,2.3,8.2,3.4c2.8,1.2,2.8,1.2,1.7,4c-0.3,0.9-0.7,1-1.5,0.6c-3.3-1.5-6.6-3-9.9-4.4
				c-0.4-0.2-0.8-0.3-1.3-0.5c-0.9,2-1.7,4-2.6,5.9c-0.5,1-0.3,1.5,0.7,2c5.1,2.4,10.1,4.9,15.2,7.4
				C488,174.8,488.4,174.9,488.8,175.1z M499.7,69c-1.7-0.1-3-0.1-4.3-0.4c-1.3-0.3-1.9,0.2-2.5,1.2c-2.4,4.3-4.8,8.5-7.2,12.8
				c-0.2,0.3-0.3,0.6-0.4,0.9c4.6,0.5,9,1,13.7,1.5c-0.4,0.8-0.7,1.4-1,2c-0.4,1-1.1,1.3-2.2,1.1c-3.8-0.5-7.6-0.9-11.4-1.4
				c-0.7-0.1-1.2,0.1-1.5,0.8c-0.5,1-1.1,2-1.7,3c-0.4,0.7-0.7,1.4-1.1,2.3c2.3,0.2,4.2,0.4,6.2,0.6c4,0.6,8,1.2,12,1.8
				c0.8,0.1,1.2-0.1,1.6-0.8c4.5-7.6,9-15.2,13.4-22.9c0.2-0.3,0.3-0.8,0.4-1.2c-1.8-0.3-3.3-0.6-4.9-0.8c-0.4,0-1,0.3-1.2,0.6
				c-1.2,1.9-2.4,3.9-3.6,5.9c-0.9,1.5-1.7,2.9-3.8,2.1c-0.2-0.1-0.4,0-0.6,0c-1.6-0.2-3.3-0.4-5.1-0.6
				C496.3,74.7,497.9,72,499.7,69z M494.5,104.1c-0.5-0.2-0.8-0.3-1.1-0.3c-5.6-0.9-11.1-1.8-16.7-2.8c-0.8-0.1-1.1,0.1-1.4,0.7
				c-2.8,5.6-5.6,11.2-8.3,16.8c-0.9,1.7-1.6,3.5-2.5,5.5c1,0.3,1.8,0.6,2.7,0.8c1.7,0.4,1.7,0.4,2.4-1.1c2.4-4.9,4.8-9.9,7.1-14.8
				c0.5-1.1,1.1-1.3,2.1-1c1.7,0.4,3.4,0.7,5.1,1.1c2.2,0.5,2.1,0.5,1.1,2.6c-0.4,0.9-0.9,1-1.8,0.8c-1.3-0.4-2.7-0.5-4-0.9
				c-0.8-0.3-1.2,0.1-1.5,0.7c-1.1,2.3-2.2,4.6-3.4,6.9c-1,2-1.9,3.9-2.8,5.9c-0.2,0.5-0.4,0.9,0.4,1.2c2.9,0.8,5.8,1.7,8.7,2.5
				c0.8,0.2,1.1,0,1.5-0.7c0.6-1.3,1.2-2.6,1.9-3.9c0.8-1.6,0.8-1.6-0.9-2.1c-1.5-0.4-2.9-0.8-4.5-1.3c0.4-0.9,0.7-1.7,1.2-2.4
				c0.2-0.3,0.7-0.5,1-0.4c1.6,0.3,3.1,0.7,4.6,1.1c0.8,0.2,1.2,0.1,1.5-0.7c0.8-1.6,1.6-3.2,2.5-4.8
				C491.2,110.4,492.8,107.3,494.5,104.1z M454.1,157c0.2-0.5,0.4-0.8,0.6-1.2c2.4-5.3,4.8-10.5,7.2-15.9c0.5-1.1,1-0.7,1.8-0.5
				c0.9,0.3,0.7,0.9,0.4,1.5c-0.5,1.1-1,2.2-1.5,3.4c-1.9,4.2-3.9,8.4-5.8,12.7c-0.2,0.4-0.1,1.2,0.1,1.4c0.9,0.7,2,1.2,3,1.8
				c2.9-6.3,5.8-12.5,8.7-18.7c2.2,0.7,2.2,0.7,1.3,2.6c-2.5,5.4-5,10.8-7.4,16.2c-0.2,0.4-0.2,1.2,0,1.3c0.9,0.7,2,1.2,3,1.8
				c0.2-0.3,0.3-0.4,0.4-0.5c3.8-8.2,7.6-16.4,11.4-24.6c0.4-0.8,0.1-1.2-0.7-1.5c-4.8-1.6-9.6-3.3-14.3-5c-0.8-0.3-1.2-0.1-1.5,0.7
				c-2.9,6.6-5.9,13.2-8.8,19.8c-1.1,2.5-1.1,2.5,1.3,4C453.4,156.6,453.7,156.8,454.1,157z M472.1,83.1c-0.3,2.1-1.1,2.9-3,2.9
				c-4-0.1-7.9-0.1-11.9-0.2c-0.4,0-0.9,0-1.1,0.3c-0.9,1.6-1.8,3.2-2.8,5c0.8,0.1,1.2,0.2,1.7,0.2c1.6,0,3.1-0.1,4.7,0
				c4.2,0.2,8.4,0.5,12.7,0.8c0.7,0.1,1.2-0.1,1.5-0.8c2.2-4.1,4.5-8.1,6.7-12.1c0.2-0.3,0.3-0.6,0.5-1.1c-4.9,0-9.5,0-14.3,0
				c0.7-1.1,0.8-2.6,2.3-2.7c3.3-0.3,6.7-0.7,10-0.4c3.2,0.3,5-0.6,6.1-3.5c0.3-0.9,0.9-1.6,1.4-2.6c-2.7,0-5.2-0.1-7.6,0
				c-4.1,0.3-8.3,0.7-12.4,1.2c-0.4,0-1,0.4-1.2,0.8c-2.4,3.8-4.7,7.6-7.1,11.5c-0.2,0.3-0.2,0.5-0.4,0.9
				C462.8,83.1,467.4,83.1,472.1,83.1z M445.9,152c0.2-0.4,0.4-0.6,0.5-0.8c2.9-6.7,5.8-13.5,8.7-20.2c0.4-0.9,0.1-1.4-0.9-1.7
				c-4.6-1.5-9.2-3-13.8-4.6c-0.8-0.3-1.1,0-1.4,0.7c-0.6,1.9-1.3,3.8-1.9,5.6c-1.3,3.9-2.7,7.7-4,11.5c-0.4,1-0.2,1.6,0.8,2.2
				c3.3,2,6.6,4,9.9,6C444.4,151.2,445.1,151.6,445.9,152z M446.8,119.1c0.2-0.4,0.4-0.7,0.5-1c0.7-1.6,1.3-3.2,2-4.7
				c0.2-0.4,0.8-0.8,1.1-0.7c1.9,0.3,3.7,0.7,5.5,1c0.9,0.2,0.9,0.6,0.6,1.3c-0.8,1.6-1.4,3.2-2.2,4.8c-0.4,0.8-0.2,1.2,0.6,1.4
				c1.2,0.4,2.5,0.8,3.8,1.2c3.5-7.5,7.1-14.9,10.7-22.5c-1.3-0.1-2.5-0.2-3.7-0.3c-4.3-0.4-8.7-0.8-13-1.4
				c-2.3-0.4-3.2,0.5-3.9,2.5c-2.1,5.4-4.3,10.7-6.6,16.1c-0.3,0.8,0,1.2,0.7,1.4C444.1,118.4,445.3,118.7,446.8,119.1z"/>
			<path class="st15" d="M519.3,109.8c-0.2,0.5-0.4,0.7-0.5,1c-4.3,7.9-8.6,15.8-12.8,23.8c-0.5,0.9-0.8,1.1-1.8,0.8
				c-4.9-1.5-9.9-2.9-14.9-4.4c-1.3-0.4-1.5-0.7-0.8-1.9c4-7.7,8-15.3,12-23c0.3-0.7,0.7-0.8,1.4-0.6c5.4,1.3,10.8,2.5,16.2,3.7
				C518.6,109.3,518.9,109.6,519.3,109.8z"/>
			<path class="st15" d="M520.9,82.7c4.7,1.2,9.2,2.3,14,3.5c-1.2,1.8-2.2,3.3-3.2,4.7c-2.1,3.1-4.3,6.3-6.4,9.4
				c-0.4,0.5-0.7,0.7-1.4,0.6c-5.6-1.3-11.3-2.6-16.9-3.8c-1-0.2-1.1-0.6-0.6-1.4c0.9-1.5,1.8-2.9,2.6-4.4c0.4-0.7,0.9-0.9,1.6-0.7
				c3.8,0.9,7.6,1.7,11.3,2.6c1,0.2,1.7,0.1,2.1-0.9c0.3-0.7,0.7-1.3,1.2-2.1c-4.7-1.1-9.1-2.1-13.7-3.1c0.8-1.4,1.6-2.7,2.4-4
				c2.1-3.4,4.2-6.7,6.2-10.1c0.6-1,1.2-1.3,2.3-0.9c5.8,1.6,11.7,3.1,17.5,4.7c1.4,0.4,1.4,0.6,0.5,1.7c-1,1.3-2,2.6-2.9,4
				c-0.4,0.7-0.9,0.8-1.7,0.6c-4-1.1-8-2.1-12-3.2c-1-0.3-1.6,0-2,0.9C521.8,81.3,521.4,81.9,520.9,82.7z"/>
			<path class="st15" d="M488.8,175.1c-0.5-0.2-0.8-0.3-1.2-0.5c-5.1-2.5-10.1-4.9-15.2-7.4c-1-0.5-1.2-1-0.7-2
				c0.9-1.9,1.7-3.8,2.6-5.9c0.5,0.2,0.9,0.4,1.3,0.5c3.3,1.5,6.6,2.9,9.9,4.4c0.8,0.4,1.1,0.3,1.5-0.6c1.1-2.8,1.1-2.8-1.7-4
				c-2.7-1.1-5.4-2.3-8.2-3.4c-0.8-0.3-1-0.7-0.6-1.5c2.2-4.8,4.4-9.6,6.6-14.4c0.4-0.9,0.8-1,1.6-0.7c0.9,0.4,1.8,0.7,2.7,1
				c1.1,0.3,1.2,0.8,0.8,1.7c-1.2,2.3-2.3,4.5-3.4,6.8c-0.7,1.4-0.6,1.4,0.8,2c1.6,0.6,3.2,1.1,4.7,1.8c0.7,0.3,1,0.1,1.3-0.6
				c1.2-2.7,2.5-5.4,3.7-8.1c0.3-0.7,0.6-0.8,1.3-0.6c1,0.4,2,0.7,3.1,1c1.1,0.3,1.2,0.8,0.8,1.7c-1.5,3.5-3.1,6.9-4.5,10.4
				c-2.3,5.6-4.4,11.3-6.6,16.9C489.2,174.1,489,174.5,488.8,175.1z"/>
			<path class="st15" d="M499.7,69c-1.8,3-3.4,5.7-5.2,8.7c1.9,0.2,3.5,0.4,5.1,0.6c0.2,0,0.4-0.1,0.6,0c2.1,0.9,3-0.5,3.8-2.1
				c1.1-2,2.3-4,3.6-5.9c0.2-0.3,0.8-0.6,1.2-0.6c1.6,0.2,3.1,0.5,4.9,0.8c-0.2,0.5-0.2,0.9-0.4,1.2c-4.5,7.6-9,15.2-13.4,22.9
				c-0.4,0.7-0.8,0.9-1.6,0.8c-4-0.6-8-1.3-12-1.8c-2-0.3-4-0.4-6.2-0.6c0.4-0.9,0.8-1.6,1.1-2.3c0.5-1,1.2-2,1.7-3
				c0.3-0.7,0.8-0.9,1.5-0.8c3.8,0.5,7.6,0.8,11.4,1.4c1.2,0.2,1.8-0.1,2.2-1.1c0.2-0.6,0.5-1.1,1-2c-4.7-0.5-9.1-1-13.7-1.5
				c0.1-0.3,0.2-0.6,0.4-0.9c2.4-4.3,4.8-8.5,7.2-12.8c0.6-1.1,1.2-1.5,2.5-1.2C496.6,68.9,498,68.9,499.7,69z"/>
			<path class="st15" d="M494.5,104.1c-1.7,3.2-3.3,6.3-4.9,9.4c-0.8,1.6-1.7,3.2-2.5,4.8c-0.3,0.7-0.7,0.9-1.5,0.7
				c-1.5-0.4-3.1-0.8-4.6-1.1c-0.3-0.1-0.8,0.2-1,0.4c-0.4,0.7-0.7,1.5-1.2,2.4c1.6,0.5,3,0.9,4.5,1.3c1.7,0.5,1.7,0.5,0.9,2.1
				c-0.6,1.3-1.3,2.5-1.9,3.9c-0.3,0.7-0.7,0.9-1.5,0.7c-2.9-0.9-5.8-1.7-8.7-2.5c-0.8-0.2-0.6-0.7-0.4-1.2c0.9-2,1.9-4,2.8-5.9
				c1.1-2.3,2.2-4.6,3.4-6.9c0.3-0.6,0.6-1,1.5-0.7c1.3,0.4,2.7,0.6,4,0.9c0.9,0.2,1.4,0.1,1.8-0.8c1-2.1,1.1-2-1.1-2.6
				c-1.7-0.4-3.4-0.7-5.1-1.1c-1-0.2-1.6,0-2.1,1c-2.3,5-4.8,9.9-7.1,14.8c-0.7,1.5-0.7,1.5-2.4,1.1c-0.9-0.2-1.7-0.5-2.7-0.8
				c0.9-1.9,1.6-3.7,2.5-5.5c2.7-5.6,5.5-11.2,8.3-16.8c0.3-0.6,0.5-0.9,1.4-0.7c5.5,1,11.1,1.8,16.7,2.8
				C493.7,103.8,494,103.9,494.5,104.1z"/>
			<path class="st15" d="M454.1,157c-0.4-0.3-0.7-0.4-1-0.6c-2.4-1.5-2.4-1.5-1.3-4c2.9-6.6,5.9-13.2,8.8-19.8
				c0.3-0.8,0.7-1,1.5-0.7c4.8,1.7,9.6,3.4,14.3,5c0.8,0.3,1.1,0.6,0.7,1.5c-3.8,8.2-7.6,16.4-11.4,24.6c-0.1,0.1-0.2,0.3-0.4,0.5
				c-1-0.6-2.1-1.1-3-1.8c-0.2-0.2-0.2-1,0-1.3c2.4-5.4,4.9-10.8,7.4-16.2c0.9-1.9,0.9-1.9-1.3-2.6c-2.9,6.2-5.7,12.3-8.7,18.7
				c-1.1-0.6-2.1-1.1-3-1.8c-0.3-0.2-0.3-1-0.1-1.4c1.9-4.2,3.9-8.5,5.8-12.7c0.5-1.1,1-2.2,1.5-3.4c0.3-0.6,0.5-1.2-0.4-1.5
				c-0.7-0.3-1.3-0.6-1.8,0.5c-2.3,5.3-4.8,10.6-7.2,15.9C454.5,156.2,454.3,156.6,454.1,157z"/>
			<path class="st15" d="M472.1,83.1c-4.7,0-9.3,0-14.1,0c0.1-0.3,0.2-0.6,0.4-0.9c2.3-3.8,4.7-7.7,7.1-11.5
				c0.2-0.4,0.8-0.7,1.2-0.8c4.1-0.4,8.2-0.9,12.4-1.2c2.4-0.2,4.9,0,7.6,0c-0.5,1-1.1,1.7-1.4,2.6c-1.1,2.9-2.9,3.8-6.1,3.5
				c-3.3-0.3-6.7,0.1-10,0.4c-1.4,0.1-1.6,1.6-2.3,2.7c4.8,0,9.5,0,14.3,0c-0.2,0.5-0.3,0.9-0.5,1.1c-2.2,4-4.5,8.1-6.7,12.1
				c-0.4,0.7-0.8,0.9-1.5,0.8c-4.2-0.3-8.4-0.6-12.7-0.8c-1.6-0.1-3.1,0-4.7,0c-0.5,0-0.9-0.1-1.7-0.2c1-1.8,1.8-3.4,2.8-5
				c0.1-0.2,0.7-0.3,1.1-0.3c4,0,7.9,0.1,11.9,0.2C471,86,471.8,85.2,472.1,83.1z"/>
			<path class="st15" d="M445.9,152c-0.8-0.4-1.5-0.8-2.2-1.2c-3.3-2-6.6-4-9.9-6c-0.9-0.6-1.1-1.2-0.8-2.2c1.4-3.8,2.7-7.7,4-11.5
				c0.7-1.9,1.3-3.7,1.9-5.6c0.2-0.8,0.6-1,1.4-0.7c4.6,1.6,9.2,3.1,13.8,4.6c0.9,0.3,1.2,0.8,0.9,1.7c-2.9,6.7-5.8,13.5-8.7,20.2
				C446.2,151.5,446.1,151.6,445.9,152z"/>
			<path class="st15" d="M446.8,119.1c-1.4-0.4-2.7-0.7-3.9-1.1c-0.7-0.2-1.1-0.5-0.7-1.4c2.2-5.4,4.5-10.7,6.6-16.1
				c0.8-1.9,1.6-2.8,3.9-2.5c4.3,0.7,8.7,1,13,1.4c1.2,0.1,2.4,0.2,3.7,0.3c-3.6,7.6-7.1,15-10.7,22.5c-1.3-0.4-2.5-0.8-3.8-1.2
				c-0.8-0.2-1-0.6-0.6-1.4c0.7-1.6,1.4-3.2,2.2-4.8c0.4-0.8,0.3-1.2-0.6-1.3c-1.8-0.3-3.7-0.8-5.5-1c-0.3-0.1-1,0.4-1.1,0.7
				c-0.7,1.5-1.3,3.1-2,4.7C447.1,118.4,446.9,118.7,446.8,119.1z M452.1,106.4c2.5,0.4,4.7,0.8,6.9,1.2c0.3,0,0.9,0,1-0.3
				c0.4-0.6,0.7-1.4,1.1-2.3c-2.6-0.4-5-0.8-7.3-1.2c-0.2,0-0.4,0.1-0.5,0.2C452.8,104.8,452.4,105.6,452.1,106.4z"/>
			<path class="st14" d="M452.1,106.4c0.4-0.8,0.7-1.6,1.1-2.4c0.1-0.1,0.3-0.2,0.5-0.2c2.4,0.4,4.8,0.8,7.3,1.2
				c-0.4,1-0.7,1.7-1.1,2.3c-0.1,0.2-0.7,0.3-1,0.3C456.7,107.2,454.5,106.8,452.1,106.4z"/>
		</g>
	</g>
</g>
</svg>
