<?xml version="1.0" encoding="utf-8"?>
<!-- Generator: Adobe Illustrator 25.3.1, SVG Export Plug-In . SVG Version: 6.00 Build 0)  -->
<svg version="1.1" id="Layer_1" xmlns="http://www.w3.org/2000/svg" xmlns:xlink="http://www.w3.org/1999/xlink" x="0px" y="0px"
	 viewBox="0 0 819.6 1148.2" style="enable-background:new 0 0 819.6 1148.2;" xml:space="preserve">
<style type="text/css">
	.st0{display:none;}
	.st1{fill:#A3A3A3;stroke:#575756;stroke-width:19;stroke-linecap:round;stroke-linejoin:round;stroke-miterlimit:10;}
	.st2{fill:none;stroke:#575756;stroke-width:19;stroke-linecap:round;stroke-linejoin:round;stroke-miterlimit:10;}
	.st3{fill:none;stroke:#575756;stroke-width:11;stroke-miterlimit:10;}
	.st4{fill:#D9D9D9;stroke:#575756;stroke-width:11;stroke-miterlimit:10;}
	.st5{fill:#575756;}
	.st6{fill:none;stroke:#575756;stroke-width:8;stroke-miterlimit:10;}
	.st7{fill:none;stroke:#575756;stroke-width:7;stroke-miterlimit:10;}
	.st8{fill:#C4E3F8;}
	.st9{fill:#FF9B69;stroke:#575756;stroke-width:11;stroke-miterlimit:10;}
	.st10{fill:#EB5F0E;stroke:#575756;stroke-width:11;stroke-miterlimit:10;}
	.st11{fill:#FFFFFF;stroke:#575756;stroke-width:7;stroke-miterlimit:10;}
	.st12{fill:none;stroke:#575756;stroke-width:3;stroke-miterlimit:10;}
	.st13{fill:none;stroke:#575756;stroke-width:3;stroke-linecap:round;stroke-linejoin:round;stroke-miterlimit:10;}
	.st14{fill:#575757;}
	.st15{fill:#FFFFFF;}
</style>
<g id="Capa_1" class="st0">
	
		<image style="display:inline;overflow:visible;enable-background:new    ;" width="1675" height="2397" xlink:href="DFD47291D871600C.jpeg"  transform="matrix(1.1247 0 0 1.1247 -558.0817 -820.3473)">
	</image>
</g>
<g id="Personaje_1_">
	<g>
		<path class="st1" d="M116.4,159.4c0,0,444,10.5,535.5,88.5s148.1,154.8,153,222c-195,391.5-186,574.5-186,574.5l-115.5,73.5
			c0,0-196.6,54-403.6-15C16.3,861.3,9.4,685.4,20.6,528.6C37.5,291.1,116.4,159.4,116.4,159.4z"/>
		<path class="st2" d="M659.7,254.6c0,0-191.7,447.2-148.5,861.5"/>
		<polyline class="st3" points="20.6,528.6 549.9,593.6 708,698.6 		"/>
		<path class="st4" d="M77.4,568.9l414,58.5c0,0-70.5,285-37.5,468c-162,46.5-333-15-333-15S30.9,645.4,77.4,568.9z"/>
		<g>
			<g>
				<path class="st5" d="M243.8,1111.4c-18.1-114-17.2-249-13.2-342.2c4.3-100.8,13-175.7,13.1-176.5l26.8,3.1
					c-0.3,2.9-34.1,297.1-0.1,511.3L243.8,1111.4z"/>
			</g>
		</g>
		<line class="st6" x1="65.1" y1="631.3" x2="479.4" y2="692"/>
		<line class="st6" x1="65.1" y1="704.5" x2="466.7" y2="761.1"/>
		<line class="st6" x1="74.5" y1="773.6" x2="457.4" y2="826.1"/>
		<line class="st7" x1="79.4" y1="846.5" x2="449.7" y2="893.9"/>
		<line class="st7" x1="91.1" y1="925.9" x2="445.5" y2="966"/>
		<line class="st7" x1="104" y1="1001.7" x2="445.5" y2="1033.4"/>
		<line class="st7" x1="663.9" y1="391.9" x2="746.4" y2="490.9"/>
		<line class="st7" x1="646.6" y1="423.7" x2="729.1" y2="522.7"/>
		<line class="st7" x1="625.5" y1="462.3" x2="708" y2="561.3"/>
		<circle class="st5" cx="583.8" cy="580.8" r="11.9"/>
		<circle class="st5" cx="687.8" cy="652.5" r="11.9"/>
		<circle class="st5" cx="669.2" cy="710.6" r="11.9"/>
		<circle class="st5" cx="566.3" cy="661.7" r="11.9"/>
		<g>
			<g>
				<path class="st8" d="M146.6,356.2c2.7-0.4,5.1,2.2,5.5,4.9c0.5,2.7-0.5,5.4-1.4,8c-1,2.9-2.1,5.8-3.1,8.7
					c-0.5,1.4-1,2.8-0.8,4.2c0.2,1.4,1.4,2.8,2.8,2.8c1.6-0.1,2.6-1.7,3.7-3c1.5-1.7,3.7-2.8,5.9-3c0.5,0,1.2,0,1.6,0.3
					c0.4,0.3,0.5,0.8,0.6,1.3c1,5.4,0.1,11.5,3.5,15.8c0.6,0.7,1.4,1.4,2.3,1.6c1.5,0.3,2.9-0.7,4-1.7c3.2-2.8,7-6.3,11.1-5
					c3.2,1,4.7,4.6,5.6,7.8c0.8,3.2,1.6,6.9,4.2,8.9c2.7-2.4,5.5-4.9,8.9-6.4s7.4-1.8,10.6,0.1c1.3,0.8,2.5,2,3.9,2.6
					c3.6,1.7,7.8-0.6,11.1-2.8c3.2-2.2,6.3-4.6,8.5-7.8s3.3-7.3,2.1-11c-0.9-2.8-3-5-5.3-6.8c-4.3-3.4-9.4-5.8-14.5-7.8
					c-10.7-4.1-22-6.8-33.4-7c-8.3-0.2-16.8,0.9-24.8-1c-2.9-0.7-6-1.7-8.6-0.2"/>
				<g>
					<path class="st8" d="M147.1,357.8c1.4-0.1,2.4,1.7,2.8,2.8c0.6,2,0,4.1-0.6,6c-0.7,2.3-1.6,4.5-2.4,6.7
						c-0.8,2.1-1.7,4.2-2.1,6.4c-0.8,4.1,3,8,7.1,6c1.7-0.8,2.5-2.5,3.8-3.7c0.6-0.5,1.3-1,2-1.3c0.4-0.2,0.8-0.3,1.3-0.4
						c0.2,0,0.5-0.1,0.8-0.1c0.1,0,0.1,0-0.1,0.1c-0.2-0.2-0.5-0.4-0.7-0.7c0.6,0.7,0.6,1.8,0.7,2.6c0.1,1,0.2,1.9,0.2,2.8
						c0.2,2,0.3,4,0.7,6c0.8,3.7,3.1,8.2,7.4,8.2c2.3,0,4.1-1.5,5.8-2.9c1.4-1.2,2.9-2.6,4.7-3.4c1.4-0.7,3-1,4.3,0.1
						c1.3,1,2.1,2.7,2.6,4.2c1.4,4.1,1.8,8.6,5.3,11.6c1,0.8,2.5,0.8,3.5-0.1c3.5-3.1,7.5-6.8,12.5-6.9c2.5,0,4.1,1.2,6,2.5
						c2.1,1.5,4.5,2.2,7.1,1.9c5-0.6,9.5-4.2,13.2-7.4c3.8-3.3,7-7.8,7-12.9s-3.3-9-7.2-11.9c-4.2-3.2-8.9-5.4-13.8-7.3
						c-10.4-4.1-21.5-6.8-32.7-7.4c-6.4-0.3-12.8,0.3-19.2,0c-3.1-0.2-6.1-0.7-9.1-1.4c-3.1-0.7-6-1-8.9,0.5
						c-0.9,0.5-0.9,1.7-0.2,2.4c0.9,0.8,2.1,0.7,3.1,0.2c1.9-1,4.5,0.1,6.4,0.5c2.7,0.6,5.4,1,8.1,1.1c5.3,0.3,10.6-0.1,15.8-0.1
						c10.5,0.1,20.8,2.2,30.7,5.7c4.7,1.7,9.3,3.5,13.6,6.2c3.7,2.2,7.8,5.3,8.6,9.9c0.8,4.7-2.2,9.1-5.5,12.1
						c-1.7,1.6-3.7,2.9-5.6,4.2c-1.8,1.2-3.9,2.5-6.1,2.5c-2.3,0-4-2.3-6-3.2c-2.5-1.2-5.3-1.5-8-1.1c-5.5,0.9-9.8,4.5-13.8,8.1
						c1.2,0,2.3-0.1,3.5-0.1c-2.6-2.2-3-5.8-3.9-8.8c-0.9-3.1-2.5-6.4-5.5-7.9c-3.5-1.7-7.2-0.7-10.3,1.3c-1.5,1-2.9,2.3-4.3,3.5
						c-0.4,0.4-1.3,1.3-2,1.3c-0.4,0-1.1-0.9-1.3-1.3c-1.9-2.8-2.1-6.4-2.3-9.7c-0.1-1.7-0.2-3.5-0.6-5.3c-0.5-2.1-2.4-3-4.4-2.9
						c-1.8,0.1-3.7,0.7-5.2,1.7c-1.5,0.9-2.5,2.2-3.6,3.5c-0.2,0.2-0.5,0.4-0.7,0.6s-0.4,0-0.1,0.2c0.6,0.3,0.1-0.1,0.1,0
						c-0.1-0.2-0.3-0.4-0.4-0.5c-0.2-0.4-0.3-0.8-0.2-1.3c0-2,1.1-4.1,1.8-5.9c0.8-2.3,1.7-4.6,2.5-7c0.7-2.1,1.3-4.4,1.1-6.7
						c-0.4-4.2-3.9-7.5-8.2-7.2c-1,0.1-1.9,0.9-1.7,1.9C144.7,357.6,146.1,357.9,147.1,357.8L147.1,357.8z"/>
				</g>
			</g>
			<g>
				<path class="st8" d="M406.3,401.6c8.1-1.1,17.6-1.5,22.8,7.5c1.1,1.8,1.9,4.2,3.2,5.8c2.3,2.8,5.6,3.3,7.8,6.3
					c3.2,4.2,2.7,11.4,1.7,17.5c-2,12.4-5,24.5-6.5,37.2c-1.5,12.6-1.3,26.1,2.8,37.4c1.3,3.7,3.7,7.5,6.6,6.9
					c2.4-0.6,3.9-4.1,4.2-7.4c0.3-3.3-0.2-6.8-0.1-10.2c0.2-9.4,5.1-18.2,11.5-20.7c1.4-0.5,2.8-0.9,4-2c3.1-3.3,1.4-10.2,1.4-15.8
					c0-6.9,3.1-13,6.5-18s7.3-9.5,9.7-15.5c2.4-6,2.7-14.4-0.8-19.2c-2.1-2.8-5-3.9-7.8-4.8c-20.8-6.9-42.2-10.7-63.6-11.4
					c-2,0-4,0-5.7,1.4c-1.7,1.4-2.7,4.7-1.7,7"/>
				<g>
					<path class="st8" d="M406.6,404c4.4-0.6,9-1.1,13.3,0.2c2,0.6,4,1.6,5.5,3.2c1.9,2,2.9,4.6,4.3,7.1c1.5,2.7,3.6,4.2,5.9,5.7
						c2.1,1.2,3.8,2.7,4.5,5.5c1.5,5.8-0.3,12.7-1.3,18.5c-2.7,14.5-6.2,29.2-6.2,44.2c0,7.1,0.6,14.3,2.4,21.1
						c1.3,5,4.1,13.4,9.5,13.2c5.8-0.2,6.5-9.4,6.3-14.6c-0.1-3.4-0.3-6.8,0.5-10.2c0.6-2.7,1.7-5.3,3.1-7.5s3.1-4.1,5.1-5.3
						c2.2-1.4,4.8-1.4,6.5-3.7c3.3-4.3,1.7-11.2,1.5-16.4c-0.1-6.4,2.8-12.2,6-17c3.5-5,7.4-9.7,9.9-15.6c2.2-5.3,2.9-11.9,1.3-17.5
						c-0.8-2.8-2.3-5.3-4.4-7.1c-2.2-1.8-4.7-2.8-7.3-3.6c-12-3.9-24.3-6.9-36.6-8.9c-6.2-1-12.5-1.7-18.8-2.1
						c-3.1-0.2-6.1-0.5-9.2-0.5c-2.5,0-5.2,0.6-6.9,3.2c-1.5,2.2-2,5.5-0.9,8.2c0.5,1.1,1.3,2.1,2.4,1.7c1-0.4,1.4-1.8,1-3
						c-1-2.5,1-4.7,2.9-5.2c2.5-0.6,5.4-0.1,7.9,0c6,0.4,11.9,0.9,17.8,1.7c11.9,1.6,23.7,4.3,35.3,7.8c2.7,0.9,5.3,1.6,7.9,2.7
						c2.1,0.9,3.9,2.3,5,4.8c2,4.7,0.9,10.8-0.9,15.3c-2.3,5.7-6.3,10.1-9.5,14.9s-6,10.3-6.5,16.6c-0.2,2.8,0.1,5.7,0.3,8.5
						c0.2,2.2,0.4,5-0.6,7.1c-1.1,2.2-3.8,2.3-5.6,3.3c-2,1.1-3.8,2.7-5.4,4.7c-3.2,4.1-5.2,9.6-5.6,15.3c-0.3,3.6,0.3,7,0.1,10.6
						c-0.1,2.2-0.6,5.4-2.4,6.6c-1.9,1.2-3.4-1.6-4.3-3.3c-1.2-2.6-2-5.7-2.6-8.6c-1.4-6.4-1.7-13.2-1.4-19.8
						c0.6-14.4,4-28.3,6.5-42.3c1-5.9,2.2-12.1,0.9-18.1c-0.6-2.7-1.8-5.3-3.6-7c-1.8-1.7-4.1-2.6-6-4.3c-2-1.7-2.8-4.8-4.2-7.1
						c-1.4-2.2-3.1-3.9-5.1-5.3c-3.8-2.5-8.3-3.2-12.6-3.1c-2.1,0-4.2,0.2-6.2,0.6C403.5,399.5,404.4,404.3,406.6,404L406.6,404z"/>
				</g>
			</g>
			<g>
				<path class="st5" d="M228.8,474.2l1.2-1.1c0.4-0.3,0.8-0.7,1.2-1c0.8-0.6,1.6-1.2,2.4-1.8c1.6-1.1,3.3-2.2,5-3.2
					c3.4-2,6.9-3.8,10.6-5.4c7.3-3.1,14.9-5.4,22.7-7c7.8-1.5,15.8-2.2,23.8-2.1c8,0,16,0.9,23.8,2.4c7.8,1.6,15.5,3.8,22.8,6.8
					c1.9,0.7,3.6,1.5,5.4,2.3s3.6,1.6,5.3,2.5c3.5,1.9,7,3.6,10.2,5.8l2.5,1.6c0.8,0.5,1.7,1,2.4,1.6l4.7,3.4l2.3,1.8l2.2,1.8
					c1.5,1.2,2.9,2.5,4.4,3.8c2.9,2.6,5.5,5.4,8.2,8.1c2.6,2.9,5,5.9,7.3,9l-5,6.2c-3.5-1.3-6.9-2.9-10.2-4.4
					c-1.7-0.7-3.3-1.4-5-2.2c-1.6-0.7-3.2-1.5-4.9-2.2c-1.6-0.7-3.3-1.4-4.9-2.1l-2.4-1.1l-2.5-1l-4.8-2c-1.6-0.7-3.2-1.2-4.8-1.9
					c-6.4-2.5-12.9-4.7-19.3-6.7c-6.5-2-13-3.6-19.5-5c-6.5-1.3-13.1-2.3-19.8-3c-6.6-0.6-13.3-0.9-20.1-0.8
					c-6.7,0.1-13.5,0.6-20.4,1.4c-3.4,0.4-6.8,0.9-10.3,1.5c-0.8,0.2-1.7,0.3-2.6,0.5l-2.6,0.5l-2.6,0.5l-1.3,0.3l-0.6,0.1
					c-0.2,0-0.4,0.1-0.5,0.1L228.8,474.2z"/>
			</g>
			<path class="st5" d="M227.7,375.3c9.7-18.8,26.4-92.4-30.6-102.7c-57-10.2-67.5,86.2-67.5,86.2S169.7,347.2,227.7,375.3z
				 M216.8,330.6c-3.3,5.7-10.6,7.7-16.3,4.5c-5.7-3.3-7.7-10.6-4.5-16.3c3.3-5.7,10.6-7.7,16.3-4.5
				C218.1,317.6,220.1,324.9,216.8,330.6z"/>
			<g>
				<path class="st5" d="M147.8,259c6.9-1,13.6-2.4,20-4c6.4-1.7,12.7-3.7,18.9-6.1c6.2-2.5,12.2-5.4,18.2-8.8
					c1.5-0.8,3-1.7,4.5-2.6c1.5-0.8,3-1.8,4.5-2.7s3-1.9,4.5-2.8c1.5-1,3-1.9,4.6-2.8c-0.9,1.6-1.8,3.2-2.8,4.7
					c-0.5,0.7-1,1.5-1.6,2.2c-0.5,0.7-1.1,1.5-1.7,2.2c-1.2,1.4-2.3,2.8-3.6,4.1l-1.9,2c-0.7,0.6-1.3,1.2-2,1.9
					c-5.4,5-11.6,9.2-18.4,12.4c-6.7,3.2-14,5.4-21.5,6c-3.7,0.3-7.5,0.3-11.2-0.2s-7.4-1.3-10.9-3L147.8,259z"/>
			</g>
			<g>
				<path class="st5" d="M113,362.2c3-1.7,6-2.9,9.1-4.2c3.1-1.2,6.2-2.2,9.4-3.1c6.4-1.8,12.9-3,19.5-3.6c6.6-0.7,13.3-0.8,20-0.4
					c6.7,0.5,13.3,1.4,19.9,2.9c3.3,0.8,6.5,1.6,9.7,2.7c3.2,1,6.3,2.2,9.5,3.5c6.2,2.7,12.2,5.7,17.8,9.4c5.6,3.7,11,7.7,15.7,12.3
					c4.9,4.5,9.2,9.5,13.1,14.8l-3.4,3.2c-1.3-1-2.5-1.9-3.8-2.9c-1.2-1-2.4-2-3.7-2.9c-2.6-1.8-5-3.8-7.6-5.4
					c-5.1-3.5-10.5-6.5-15.9-9.3c-5.5-2.7-11.1-5.1-16.8-7.2c-2.9-0.9-5.7-2-8.7-2.7c-2.9-0.9-5.9-1.5-8.8-2.2l-4.5-0.9
					c-1.5-0.3-3-0.5-4.5-0.7c-1.5-0.3-3-0.4-4.5-0.6l-2.3-0.3l-2.3-0.2c-6.1-0.6-12.2-1-18.3-1c-12.3-0.2-24.8,0.6-37.4,2.1
					L113,362.2z"/>
			</g>
			<path class="st5" d="M492.5,411.8c0,0,17.2-95.5-40.4-101.8s-62.4,69-58.4,89.8C457.3,389.4,492.5,411.8,492.5,411.8z
				 M425.6,345.7c6.4-1.5,12.9,2.5,14.4,8.9s-2.5,12.9-8.9,14.4s-12.9-2.5-14.4-8.9S419.2,347.3,425.6,345.7z"/>
			<g>
				<path class="st5" d="M503,313.4c-3.9,0.7-7.6,0.4-11.3-0.2c-3.7-0.6-7.3-1.6-10.8-3c-7-2.8-13.4-6.9-18.9-11.9
					s-10.4-10.8-14.1-17.1c-0.5-0.8-1-1.6-1.4-2.4l-1.3-2.4c-0.8-1.6-1.6-3.3-2.3-5c-0.4-0.8-0.7-1.7-1-2.5s-0.6-1.7-0.9-2.6
					c-0.5-1.7-1-3.5-1.4-5.3c1.3,1.3,2.4,2.7,3.6,4s2.3,2.7,3.5,4s2.3,2.6,3.5,3.9s2.3,2.5,3.5,3.8c4.8,4.9,9.7,9.5,14.9,13.6
					c5.2,4.1,10.7,7.8,16.4,11.2c5.7,3.4,11.7,6.6,18.1,9.5L503,313.4z"/>
			</g>
			<g>
				<path class="st5" d="M505.4,422.7c-11.6-5-23.4-9.3-35.3-12.6c-5.9-1.7-11.9-3.1-17.9-4.2l-2.2-0.4l-2.2-0.4
					c-1.5-0.2-3-0.5-4.5-0.7s-3-0.4-4.5-0.6l-4.5-0.4c-3-0.2-6-0.4-9.1-0.4c-3-0.1-6.1,0.1-9.1,0.1c-6,0.4-12.1,1-18.1,2.1
					c-6,1.2-12,2.5-17.9,4.5c-3,0.8-5.9,2-8.8,3c-1.5,0.5-2.9,1.1-4.4,1.7s-2.9,1.2-4.4,1.7l-2.4-4c5.2-3.9,10.8-7.6,16.7-10.5
					c5.9-3.1,12.2-5.4,18.5-7.4c6.4-1.9,13-3.2,19.7-4c3.3-0.3,6.7-0.6,10.1-0.6c3.4-0.1,6.7,0,10.1,0.2c6.7,0.4,13.4,1.4,19.9,2.8
					c6.5,1.5,12.9,3.5,19.1,6s12.1,5.5,17.7,9c2.8,1.7,5.5,3.6,8.2,5.6c2.6,2,5.1,4.1,7.5,6.5L505.4,422.7z"/>
			</g>
		</g>
		<g>
			<g>
				<path class="st9" d="M383.8,135.8c0,0-119,9.3-35.7,100s214.5,4.9,214.5,4.9L383.8,135.8z"/>
				<path class="st10" d="M533.5,27.4c-80.2,0-145.7,37.1-149.7,108.4c139,141.7,253.7,103.6,266.9,110.5c20.4-23,32.6-52.2,32.6-84
					C683.4,87.8,616.3,27.4,533.5,27.4z"/>
				<path class="st11" d="M680.3,202.4c-5.2,21.8-10.5,41.2-20.7,52.2c-36.1,0-65.1-6.7-65.1-6.7c15-133.8-27.3-217-27.3-217
					s14.4-0.2,40.1,11.5C626.5,51.2,709.9,77.8,680.3,202.4z"/>
			</g>
			<line class="st12" x1="581.8" y1="67.7" x2="598.3" y2="40.2"/>
			<line class="st12" x1="590.1" y1="99.8" x2="627.6" y2="55.8"/>
			<line class="st12" x1="596.2" y1="140.6" x2="661.1" y2="77.8"/>
			<line class="st12" x1="596.2" y1="189.4" x2="678.4" y2="116"/>
			<line class="st12" x1="595.5" y1="235.9" x2="687.8" y2="155.7"/>
			<path class="st13" d="M573.1,30.9c0,0,84.9,90.6,48,219.7l63.5-61.1"/>
			<path class="st12" d="M614.6,48c0,0,85.9,82.5,38,202.6"/>
			<ellipse class="st5" cx="576" cy="18.8" rx="13.4" ry="8.6"/>
		</g>
	</g>
</g>
<g id="Capa_4_1_">
	<g>
		<g>
			<path class="st14" d="M554.9,73c-14.4,17.5-27.8,35.4-38.3,55.4c-10.5,19.9-18.1,40.8-24.8,62.3c-2.8-1.4-5.7-2.7-8.4-4.1
				c-10.5-5.4-20.7-11.3-30.4-18.2c-5.8-4.1-11.5-8.4-17.3-12.6c-3-2.2-5.9-4.3-8.8-6.6c-0.3-0.2-0.5-0.8-0.4-1.1
				c2.3-7.6,4.6-15.2,7-22.8c2.6-8.4,5.3-16.8,9.1-24.8c2.9-5.9,5.9-11.8,9.3-17.5c3.5-5.8,7.6-11.3,11.4-16.9
				c0.3-0.4,0.9-0.9,1.4-1c4.6-0.9,9.3-1.8,14-2.7c6-1,12.1-1.4,18.2-1.4c6.1-0.1,12.2,0.4,18.2,1.1C528.7,63.9,541.8,67.8,554.9,73
				z M519.1,110.8c-0.4-0.2-0.7-0.5-1.1-0.5c-5.4-1.3-10.8-2.5-16.2-3.7c-0.7-0.2-1.1,0-1.4,0.6c-4,7.7-8,15.3-12,23
				c-0.7,1.3-0.6,1.6,0.8,1.9c4.9,1.5,9.9,2.9,14.9,4.4c1,0.3,1.3,0,1.8-0.8c4.2-7.9,8.5-15.8,12.8-23.8
				C518.8,111.5,518.9,111.2,519.1,110.8z M520.7,83.7c0.5-0.8,0.9-1.4,1.2-2c0.4-0.9,1-1.2,2-0.9c4,1.1,8,2.1,12,3.2
				c0.8,0.2,1.2,0.1,1.7-0.6c0.9-1.4,1.9-2.7,2.9-4c0.9-1.2,0.9-1.3-0.5-1.7c-5.8-1.6-11.7-3.1-17.5-4.7c-1.1-0.3-1.7,0-2.3,0.9
				c-2,3.4-4.1,6.7-6.2,10.1c-0.8,1.3-1.6,2.6-2.4,4c4.6,1.1,9,2.1,13.7,3.1c-0.5,0.9-0.9,1.5-1.2,2.1c-0.5,1-1.1,1.1-2.1,0.9
				c-3.8-0.9-7.6-1.7-11.3-2.6c-0.8-0.2-1.3,0-1.6,0.7c-0.8,1.5-1.7,3-2.6,4.4c-0.5,0.8-0.4,1.1,0.6,1.4c5.7,1.2,11.3,2.5,16.9,3.8
				c0.7,0.2,1,0,1.4-0.6c2.1-3.1,4.2-6.3,6.4-9.4c1-1.5,2-2.9,3.2-4.7C529.9,86,525.4,84.9,520.7,83.7z M488.6,176
				c0.2-0.5,0.4-1,0.6-1.4c2.2-5.6,4.4-11.3,6.6-16.9c1.4-3.5,3-6.9,4.5-10.4c0.4-1,0.3-1.5-0.8-1.7c-1-0.3-2.1-0.6-3.1-1
				c-0.7-0.2-1-0.1-1.3,0.6c-1.2,2.7-2.5,5.4-3.7,8.1c-0.3,0.7-0.6,0.9-1.3,0.6c-1.6-0.6-3.1-1.2-4.7-1.8c-1.4-0.5-1.5-0.6-0.8-2
				c1.1-2.3,2.2-4.6,3.4-6.8c0.5-0.9,0.3-1.4-0.8-1.7c-0.9-0.2-1.8-0.6-2.7-1c-0.8-0.4-1.3-0.2-1.6,0.7c-2.1,4.8-4.3,9.6-6.6,14.4
				c-0.4,0.8-0.1,1.2,0.6,1.5c2.7,1.1,5.5,2.3,8.2,3.4c2.8,1.2,2.8,1.2,1.7,4c-0.3,0.9-0.7,1-1.5,0.6c-3.3-1.5-6.6-3-9.9-4.4
				c-0.4-0.2-0.8-0.3-1.3-0.5c-0.9,2-1.7,4-2.6,5.9c-0.5,1-0.3,1.5,0.7,2c5.1,2.4,10.1,4.9,15.2,7.4
				C487.8,175.8,488.1,175.9,488.6,176z M499.5,70c-1.7-0.1-3-0.1-4.3-0.4s-1.9,0.2-2.5,1.2c-2.4,4.3-4.8,8.5-7.2,12.8
				c-0.2,0.3-0.3,0.6-0.4,0.9c4.6,0.5,9,1,13.7,1.5c-0.4,0.8-0.7,1.4-1,2c-0.4,1-1.1,1.3-2.2,1.1c-3.8-0.5-7.6-0.9-11.4-1.4
				c-0.7-0.1-1.2,0.1-1.5,0.8c-0.5,1-1.1,2-1.7,3c-0.4,0.7-0.7,1.4-1.1,2.3c2.3,0.2,4.2,0.4,6.2,0.6c4,0.6,8,1.2,12,1.8
				c0.8,0.1,1.2-0.1,1.6-0.8c4.5-7.6,9-15.2,13.4-22.9c0.2-0.3,0.3-0.8,0.4-1.2c-1.8-0.3-3.3-0.6-4.9-0.8c-0.4,0-1,0.3-1.2,0.6
				c-1.2,1.9-2.4,3.9-3.6,5.9c-0.9,1.5-1.7,2.9-3.8,2.1c-0.2-0.1-0.4,0-0.6,0c-1.6-0.2-3.3-0.4-5.1-0.6
				C496.1,75.7,497.7,73,499.5,70z M494.3,105.1c-0.5-0.2-0.8-0.3-1.1-0.3c-5.6-0.9-11.1-1.8-16.7-2.8c-0.8-0.1-1.1,0.1-1.4,0.7
				c-2.8,5.6-5.6,11.2-8.3,16.8c-0.9,1.7-1.6,3.5-2.5,5.5c1,0.3,1.8,0.6,2.7,0.8c1.7,0.4,1.7,0.4,2.4-1.1c2.4-4.9,4.8-9.9,7.1-14.8
				c0.5-1.1,1.1-1.3,2.1-1c1.7,0.4,3.4,0.7,5.1,1.1c2.2,0.5,2.1,0.5,1.1,2.6c-0.4,0.9-0.9,1-1.8,0.8c-1.3-0.4-2.7-0.5-4-0.9
				c-0.8-0.3-1.2,0.1-1.5,0.7c-1.1,2.3-2.2,4.6-3.4,6.9c-1,2-1.9,3.9-2.8,5.9c-0.2,0.5-0.4,0.9,0.4,1.2c2.9,0.8,5.8,1.7,8.7,2.5
				c0.8,0.2,1.1,0,1.5-0.7c0.6-1.3,1.2-2.6,1.9-3.9c0.8-1.6,0.8-1.6-0.9-2.1c-1.5-0.4-2.9-0.8-4.5-1.3c0.4-0.9,0.7-1.7,1.2-2.4
				c0.2-0.3,0.7-0.5,1-0.4c1.6,0.3,3.1,0.7,4.6,1.1c0.8,0.2,1.2,0.1,1.5-0.7c0.8-1.6,1.6-3.2,2.5-4.8
				C491,111.4,492.6,108.3,494.3,105.1z M453.9,158c0.2-0.5,0.4-0.8,0.6-1.2c2.4-5.3,4.8-10.5,7.2-15.9c0.5-1.1,1-0.7,1.8-0.5
				c0.9,0.3,0.7,0.9,0.4,1.5c-0.5,1.1-1,2.2-1.5,3.4c-1.9,4.2-3.9,8.4-5.8,12.7c-0.2,0.4-0.1,1.2,0.1,1.4c0.9,0.7,2,1.2,3,1.8
				c2.9-6.3,5.8-12.5,8.7-18.7c2.2,0.7,2.2,0.7,1.3,2.6c-2.5,5.4-5,10.8-7.4,16.2c-0.2,0.4-0.2,1.2,0,1.3c0.9,0.7,2,1.2,3,1.8
				c0.2-0.3,0.3-0.4,0.4-0.5c3.8-8.2,7.6-16.4,11.4-24.6c0.4-0.8,0.1-1.2-0.7-1.5c-4.8-1.6-9.6-3.3-14.3-5c-0.8-0.3-1.2-0.1-1.5,0.7
				c-2.9,6.6-5.9,13.2-8.8,19.8c-1.1,2.5-1.1,2.5,1.3,4C453.2,157.6,453.5,157.7,453.9,158z M471.9,84c-0.3,2.1-1.1,2.9-3,2.9
				c-4-0.1-7.9-0.1-11.9-0.2c-0.4,0-0.9,0-1.1,0.3c-0.9,1.6-1.8,3.2-2.8,5c0.8,0.1,1.2,0.2,1.7,0.2c1.6,0,3.1-0.1,4.7,0
				c4.2,0.2,8.4,0.5,12.7,0.8c0.7,0.1,1.2-0.1,1.5-0.8c2.2-4.1,4.5-8.1,6.7-12.1c0.2-0.3,0.3-0.6,0.5-1.1c-4.9,0-9.5,0-14.3,0
				c0.7-1.1,0.8-2.6,2.3-2.7c3.3-0.3,6.7-0.7,10-0.4c3.2,0.3,5-0.6,6.1-3.5c0.3-0.9,0.9-1.6,1.4-2.6c-2.7,0-5.2-0.1-7.6,0
				c-4.1,0.3-8.3,0.7-12.4,1.2c-0.4,0-1,0.4-1.2,0.8c-2.4,3.8-4.7,7.6-7.1,11.5c-0.2,0.3-0.2,0.5-0.4,0.9
				C462.6,84,467.2,84,471.9,84z M445.7,153c0.2-0.4,0.4-0.6,0.5-0.8c2.9-6.7,5.8-13.5,8.7-20.2c0.4-0.9,0.1-1.4-0.9-1.7
				c-4.6-1.5-9.2-3-13.8-4.6c-0.8-0.3-1.1,0-1.4,0.7c-0.6,1.9-1.3,3.8-1.9,5.6c-1.3,3.9-2.7,7.7-4,11.5c-0.4,1-0.2,1.6,0.8,2.2
				c3.3,2,6.6,4,9.9,6C444.2,152.2,444.9,152.6,445.7,153z M446.5,120.1c0.2-0.4,0.4-0.7,0.5-1c0.7-1.6,1.3-3.2,2-4.7
				c0.2-0.4,0.8-0.8,1.1-0.7c1.9,0.3,3.7,0.7,5.5,1c0.9,0.2,0.9,0.6,0.6,1.3c-0.8,1.6-1.4,3.2-2.2,4.8c-0.4,0.8-0.2,1.2,0.6,1.4
				c1.2,0.4,2.5,0.8,3.8,1.2c3.5-7.5,7.1-14.9,10.7-22.5c-1.3-0.1-2.5-0.2-3.7-0.3c-4.3-0.4-8.7-0.8-13-1.4
				c-2.3-0.4-3.2,0.5-3.9,2.5c-2.1,5.4-4.3,10.7-6.6,16.1c-0.3,0.8,0,1.2,0.7,1.4C443.9,119.3,445.1,119.7,446.5,120.1z"/>
			<path class="st15" d="M519.1,110.8c-0.2,0.5-0.4,0.7-0.5,1c-4.3,7.9-8.6,15.8-12.8,23.8c-0.5,0.9-0.8,1.1-1.8,0.8
				c-4.9-1.5-9.9-2.9-14.9-4.4c-1.3-0.4-1.5-0.7-0.8-1.9c4-7.7,8-15.3,12-23c0.3-0.7,0.7-0.8,1.4-0.6c5.4,1.3,10.8,2.5,16.2,3.7
				C518.4,110.3,518.7,110.6,519.1,110.8z"/>
			<path class="st15" d="M520.7,83.7c4.7,1.2,9.2,2.3,14,3.5c-1.2,1.8-2.2,3.3-3.2,4.7c-2.1,3.1-4.3,6.3-6.4,9.4
				c-0.4,0.5-0.7,0.7-1.4,0.6c-5.6-1.3-11.3-2.6-16.9-3.8c-1-0.2-1.1-0.6-0.6-1.4c0.9-1.5,1.8-2.9,2.6-4.4c0.4-0.7,0.9-0.9,1.6-0.7
				c3.8,0.9,7.6,1.7,11.3,2.6c1,0.2,1.7,0.1,2.1-0.9c0.3-0.7,0.7-1.3,1.2-2.1c-4.7-1.1-9.1-2.1-13.7-3.1c0.8-1.4,1.6-2.7,2.4-4
				c2.1-3.4,4.2-6.7,6.2-10.1c0.6-1,1.2-1.3,2.3-0.9c5.8,1.6,11.7,3.1,17.5,4.7c1.4,0.4,1.4,0.6,0.5,1.7c-1,1.3-2,2.6-2.9,4
				c-0.4,0.7-0.9,0.8-1.7,0.6c-4-1.1-8-2.1-12-3.2c-1-0.3-1.6,0-2,0.9C521.6,82.3,521.2,82.9,520.7,83.7z"/>
			<path class="st15" d="M488.6,176c-0.5-0.2-0.8-0.3-1.2-0.5c-5.1-2.5-10.1-4.9-15.2-7.4c-1-0.5-1.2-1-0.7-2
				c0.9-1.9,1.7-3.8,2.6-5.9c0.5,0.2,0.9,0.4,1.3,0.5c3.3,1.5,6.6,2.9,9.9,4.4c0.8,0.4,1.1,0.3,1.5-0.6c1.1-2.8,1.1-2.8-1.7-4
				c-2.7-1.1-5.4-2.3-8.2-3.4c-0.8-0.3-1-0.7-0.6-1.5c2.2-4.8,4.4-9.6,6.6-14.4c0.4-0.9,0.8-1,1.6-0.7c0.9,0.4,1.8,0.7,2.7,1
				c1.1,0.3,1.2,0.8,0.8,1.7c-1.2,2.3-2.3,4.5-3.4,6.8c-0.7,1.4-0.6,1.4,0.8,2c1.6,0.6,3.2,1.1,4.7,1.8c0.7,0.3,1,0.1,1.3-0.6
				c1.2-2.7,2.5-5.4,3.7-8.1c0.3-0.7,0.6-0.8,1.3-0.6c1,0.4,2,0.7,3.1,1s1.2,0.8,0.8,1.7c-1.5,3.5-3.1,6.9-4.5,10.4
				c-2.3,5.6-4.4,11.3-6.6,16.9C489,175.1,488.8,175.5,488.6,176z"/>
			<path class="st15" d="M499.5,70c-1.8,3-3.4,5.7-5.2,8.7c1.9,0.2,3.5,0.4,5.1,0.6c0.2,0,0.4-0.1,0.6,0c2.1,0.9,3-0.5,3.8-2.1
				c1.1-2,2.3-4,3.6-5.9c0.2-0.3,0.8-0.6,1.2-0.6c1.6,0.2,3.1,0.5,4.9,0.8c-0.2,0.5-0.2,0.9-0.4,1.2c-4.5,7.6-9,15.2-13.4,22.9
				c-0.4,0.7-0.8,0.9-1.6,0.8c-4-0.6-8-1.3-12-1.8c-2-0.3-4-0.4-6.2-0.6c0.4-0.9,0.8-1.6,1.1-2.3c0.5-1,1.2-2,1.7-3
				c0.3-0.7,0.8-0.9,1.5-0.8c3.8,0.5,7.6,0.8,11.4,1.4c1.2,0.2,1.8-0.1,2.2-1.1c0.2-0.6,0.5-1.1,1-2c-4.7-0.5-9.1-1-13.7-1.5
				c0.1-0.3,0.2-0.6,0.4-0.9c2.4-4.3,4.8-8.5,7.2-12.8c0.6-1.1,1.2-1.5,2.5-1.2C496.4,69.9,497.8,69.8,499.5,70z"/>
			<path class="st15" d="M494.3,105.1c-1.7,3.2-3.3,6.3-4.9,9.4c-0.8,1.6-1.7,3.2-2.5,4.8c-0.3,0.7-0.7,0.9-1.5,0.7
				c-1.5-0.4-3.1-0.8-4.6-1.1c-0.3-0.1-0.8,0.2-1,0.4c-0.4,0.7-0.7,1.5-1.2,2.4c1.6,0.5,3,0.9,4.5,1.3c1.7,0.5,1.7,0.5,0.9,2.1
				c-0.6,1.3-1.3,2.5-1.9,3.9c-0.3,0.7-0.7,0.9-1.5,0.7c-2.9-0.9-5.8-1.7-8.7-2.5c-0.8-0.2-0.6-0.7-0.4-1.2c0.9-2,1.9-4,2.8-5.9
				c1.1-2.3,2.2-4.6,3.4-6.9c0.3-0.6,0.6-1,1.5-0.7c1.3,0.4,2.7,0.6,4,0.9c0.9,0.2,1.4,0.1,1.8-0.8c1-2.1,1.1-2-1.1-2.6
				c-1.7-0.4-3.4-0.7-5.1-1.1c-1-0.2-1.6,0-2.1,1c-2.3,5-4.8,9.9-7.1,14.8c-0.7,1.5-0.7,1.5-2.4,1.1c-0.9-0.2-1.7-0.5-2.7-0.8
				c0.9-1.9,1.6-3.7,2.5-5.5c2.7-5.6,5.5-11.2,8.3-16.8c0.3-0.6,0.5-0.9,1.4-0.7c5.5,1,11.1,1.8,16.7,2.8
				C493.5,104.8,493.8,104.9,494.3,105.1z"/>
			<path class="st15" d="M453.9,158c-0.4-0.3-0.7-0.4-1-0.6c-2.4-1.5-2.4-1.5-1.3-4c2.9-6.6,5.9-13.2,8.8-19.8
				c0.3-0.8,0.7-1,1.5-0.7c4.8,1.7,9.6,3.4,14.3,5c0.8,0.3,1.1,0.6,0.7,1.5c-3.8,8.2-7.6,16.4-11.4,24.6c-0.1,0.1-0.2,0.3-0.4,0.5
				c-1-0.6-2.1-1.1-3-1.8c-0.2-0.2-0.2-1,0-1.3c2.4-5.4,4.9-10.8,7.4-16.2c0.9-1.9,0.9-1.9-1.3-2.6c-2.9,6.2-5.7,12.3-8.7,18.7
				c-1.1-0.6-2.1-1.1-3-1.8c-0.3-0.2-0.3-1-0.1-1.4c1.9-4.2,3.9-8.5,5.8-12.7c0.5-1.1,1-2.2,1.5-3.4c0.3-0.6,0.5-1.2-0.4-1.5
				c-0.7-0.3-1.3-0.6-1.8,0.5c-2.3,5.3-4.8,10.6-7.2,15.9C454.3,157.2,454.1,157.5,453.9,158z"/>
			<path class="st15" d="M471.9,84c-4.7,0-9.3,0-14.1,0c0.1-0.3,0.2-0.6,0.4-0.9c2.3-3.8,4.7-7.7,7.1-11.5c0.2-0.4,0.8-0.7,1.2-0.8
				c4.1-0.4,8.2-0.9,12.4-1.2c2.4-0.2,4.9,0,7.6,0c-0.5,1-1.1,1.7-1.4,2.6c-1.1,2.9-2.9,3.8-6.1,3.5c-3.3-0.3-6.7,0.1-10,0.4
				c-1.4,0.1-1.6,1.6-2.3,2.7c4.8,0,9.5,0,14.3,0c-0.2,0.5-0.3,0.9-0.5,1.1c-2.2,4-4.5,8.1-6.7,12.1c-0.4,0.7-0.8,0.9-1.5,0.8
				c-4.2-0.3-8.4-0.6-12.7-0.8c-1.6-0.1-3.1,0-4.7,0c-0.5,0-0.9-0.1-1.7-0.2c1-1.8,1.8-3.4,2.8-5c0.1-0.2,0.7-0.3,1.1-0.3
				c4,0,7.9,0.1,11.9,0.2C470.7,86.9,471.6,86.1,471.9,84z"/>
			<path class="st15" d="M445.7,153c-0.8-0.4-1.5-0.8-2.2-1.2c-3.3-2-6.6-4-9.9-6c-0.9-0.6-1.1-1.2-0.8-2.2c1.4-3.8,2.7-7.7,4-11.5
				c0.7-1.9,1.3-3.7,1.9-5.6c0.2-0.8,0.6-1,1.4-0.7c4.6,1.6,9.2,3.1,13.8,4.6c0.9,0.3,1.2,0.8,0.9,1.7c-2.9,6.7-5.8,13.5-8.7,20.2
				C446,152.4,445.9,152.6,445.7,153z"/>
			<path class="st15" d="M446.5,120.1c-1.4-0.4-2.7-0.7-3.9-1.1c-0.7-0.2-1.1-0.5-0.7-1.4c2.2-5.4,4.5-10.7,6.6-16.1
				c0.8-1.9,1.6-2.8,3.9-2.5c4.3,0.7,8.7,1,13,1.4c1.2,0.1,2.4,0.2,3.7,0.3c-3.6,7.6-7.1,15-10.7,22.5c-1.3-0.4-2.5-0.8-3.8-1.2
				c-0.8-0.2-1-0.6-0.6-1.4c0.7-1.6,1.4-3.2,2.2-4.8c0.4-0.8,0.3-1.2-0.6-1.3c-1.8-0.3-3.7-0.8-5.5-1c-0.3-0.1-1,0.4-1.1,0.7
				c-0.7,1.5-1.3,3.1-2,4.7C446.9,119.4,446.7,119.7,446.5,120.1z M451.9,107.3c2.5,0.4,4.7,0.8,6.9,1.2c0.3,0,0.9,0,1-0.3
				c0.4-0.6,0.7-1.4,1.1-2.3c-2.6-0.4-5-0.8-7.3-1.2c-0.2,0-0.4,0.1-0.5,0.2C452.6,105.7,452.2,106.5,451.9,107.3z"/>
			<path class="st14" d="M451.9,107.3c0.4-0.8,0.7-1.6,1.1-2.4c0.1-0.1,0.3-0.2,0.5-0.2c2.4,0.4,4.8,0.8,7.3,1.2
				c-0.4,1-0.7,1.7-1.1,2.3c-0.1,0.2-0.7,0.3-1,0.3C456.5,108.2,454.3,107.8,451.9,107.3z"/>
		</g>
	</g>
</g>
</svg>
