<?xml version="1.0" encoding="utf-8"?>
<!-- Generator: Adobe Illustrator 25.3.1, SVG Export Plug-In . SVG Version: 6.00 Build 0)  -->
<svg version="1.1" id="Layer_1" xmlns="http://www.w3.org/2000/svg" xmlns:xlink="http://www.w3.org/1999/xlink" x="0px" y="0px"
	 viewBox="0 0 807.4 1137.4" style="enable-background:new 0 0 807.4 1137.4;" xml:space="preserve">
<style type="text/css">
	.st0{display:none;}
	.st1{fill:#C4E3F8;}
	.st2{fill:#3A5BA6;}
	.st3{fill:none;stroke:#C4E3F8;stroke-width:7;stroke-miterlimit:10;}
	.st4{fill:#79A3D7;}
	.st5{fill:#3A5BA6;stroke:#C4E3F8;stroke-width:4;stroke-miterlimit:10;}
	.st6{fill:none;stroke:#C4E3F8;stroke-width:7;stroke-linecap:round;stroke-linejoin:round;stroke-miterlimit:10;}
	.st7{fill:#A3A3A3;stroke:#575756;stroke-width:19;stroke-linecap:round;stroke-linejoin:round;stroke-miterlimit:10;}
	.st8{fill:none;stroke:#575756;stroke-width:19;stroke-linecap:round;stroke-linejoin:round;stroke-miterlimit:10;}
	.st9{fill:none;stroke:#575756;stroke-width:11;stroke-miterlimit:10;}
	.st10{fill:#D9D9D9;stroke:#575756;stroke-width:11;stroke-miterlimit:10;}
	.st11{fill:#575756;}
	.st12{fill:none;stroke:#575756;stroke-width:8;stroke-miterlimit:10;}
	.st13{fill:none;stroke:#575756;stroke-width:7;stroke-miterlimit:10;}
	.st14{fill:none;stroke:#575756;stroke-width:9;stroke-linecap:round;stroke-linejoin:round;stroke-miterlimit:10;}
	.st15{fill:#A3A3A3;}
	.st16{fill:none;stroke:#575756;stroke-width:7;stroke-linecap:round;stroke-linejoin:round;stroke-miterlimit:10;}
	.st17{fill:#FF9B69;stroke:#575756;stroke-width:11;stroke-miterlimit:10;}
	.st18{fill:#EB5F0E;stroke:#575756;stroke-width:11;stroke-miterlimit:10;}
	.st19{fill:#FFFFFF;stroke:#575756;stroke-width:7;stroke-miterlimit:10;}
	.st20{fill:none;stroke:#575756;stroke-width:3;stroke-miterlimit:10;}
	.st21{fill:none;stroke:#575756;stroke-width:3;stroke-linecap:round;stroke-linejoin:round;stroke-miterlimit:10;}
	.st22{fill:#575757;}
	.st23{fill:#FFFFFF;}
</style>
<g id="Personaje_1_">
	<g>
		<path class="st7" d="M109.4,149.2c0,0,444,10.5,535.5,88.5s148.1,154.8,153,222c-195,391.5-186,574.5-186,574.5l-115.5,73.5
			c0,0-196.6,54-403.6-15C9.3,851.2,2.5,675.2,13.6,518.4C30.5,280.9,109.4,149.2,109.4,149.2z"/>
		<path class="st8" d="M652.7,244.5c0,0-191.7,447.2-148.5,861.5"/>
		<polyline class="st9" points="13.6,518.4 542.9,583.4 701,688.5 		"/>
		<path class="st10" d="M70.4,558.7l414,58.5c0,0-70.5,285-37.5,468c-162,46.5-333-15-333-15S23.9,635.2,70.4,558.7z"/>
		<g>
			<g>
				<path class="st11" d="M236.9,1101.2c-18.1-114-17.2-249-13.2-342.2c4.3-100.8,13-175.7,13.1-176.5l26.8,3.1
					c-0.3,2.9-34.1,297.1-0.1,511.3L236.9,1101.2z"/>
			</g>
		</g>
		<line class="st12" x1="58.2" y1="621.1" x2="472.4" y2="681.9"/>
		<line class="st12" x1="58.2" y1="694.4" x2="459.7" y2="750.9"/>
		<line class="st12" x1="67.5" y1="763.4" x2="450.4" y2="816"/>
		<line class="st13" x1="72.4" y1="836.3" x2="442.7" y2="883.8"/>
		<line class="st13" x1="84.2" y1="915.7" x2="438.5" y2="955.8"/>
		<line class="st13" x1="97" y1="991.5" x2="438.5" y2="1023.2"/>
		<line class="st13" x1="656.9" y1="381.7" x2="739.4" y2="480.7"/>
		<line class="st13" x1="639.6" y1="413.5" x2="722.1" y2="512.5"/>
		<line class="st13" x1="618.5" y1="452.1" x2="701" y2="551.1"/>
		<path class="st14" d="M242.5,463c0,0,43.3,33.9,114.9-10.9"/>
		<path class="st14" d="M361.4,428.1c0,0-8.2,18.9,1.7,31.3s28,19.1,40.6,7.5"/>
		<circle class="st11" cx="576.8" cy="570.7" r="11.9"/>
		<circle class="st11" cx="680.8" cy="642.3" r="11.9"/>
		<circle class="st11" cx="662.2" cy="700.4" r="11.9"/>
		<circle class="st11" cx="559.3" cy="651.5" r="11.9"/>
		
			<ellipse transform="matrix(0.9357 -0.3527 0.3527 0.9357 -102.6171 157.9565)" class="st11" cx="382.1" cy="360.6" rx="42.2" ry="52.9"/>
		
			<ellipse transform="matrix(0.6149 -0.7886 0.7886 0.6149 -181.5321 282.7485)" class="st11" cx="198.7" cy="327.2" rx="52.9" ry="42.2"/>
		<circle class="st15" cx="204.9" cy="331.2" r="10.5"/>
		<circle class="st15" cx="376.7" cy="355.3" r="10.5"/>
		<path class="st16" d="M136.9,257.7c0,0,38.5-42.5,96.5-20"/>
		<path class="st16" d="M381,257.7c0,0,60.5,9,80,58.5"/>
		<g>
			<g>
				<path class="st17" d="M376.9,125.7c0,0-119,9.3-35.7,100s214.5,4.9,214.5,4.9L376.9,125.7z"/>
				<path class="st18" d="M526.5,17.2c-80.2,0-145.7,37.1-149.7,108.4c139,141.7,253.7,103.6,266.9,110.5c20.4-23,32.6-52.2,32.6-84
					C676.4,77.6,609.3,17.2,526.5,17.2z"/>
				<path class="st19" d="M673.4,192.2c-5.2,21.8-10.5,41.2-20.7,52.2c-36.1,0-65.1-6.7-65.1-6.7c15-133.8-27.3-217-27.3-217
					s14.4-0.2,40.1,11.5C619.6,41,702.9,67.6,673.4,192.2z"/>
			</g>
			<line class="st20" x1="574.9" y1="57.5" x2="591.3" y2="30"/>
			<line class="st20" x1="583.1" y1="89.6" x2="620.6" y2="45.6"/>
			<line class="st20" x1="589.2" y1="130.4" x2="654.2" y2="67.6"/>
			<line class="st20" x1="589.2" y1="179.2" x2="671.4" y2="105.8"/>
			<line class="st20" x1="588.5" y1="225.7" x2="680.8" y2="145.5"/>
			<path class="st21" d="M566.2,20.7c0,0,84.9,90.6,48,219.7l63.5-61.1"/>
			<path class="st20" d="M607.7,37.8c0,0,85.9,82.5,38,202.6"/>
			<ellipse class="st11" cx="569" cy="8.6" rx="13.4" ry="8.6"/>
		</g>
	</g>
</g>
<g id="Capa_4_2_">
	<g id="Capa_4_3_">
		<g>
			<g>
				<path class="st22" d="M545.6,58.9c-14.4,17.5-27.8,35.4-38.3,55.4c-10.5,19.9-18.1,40.8-24.8,62.3c-2.8-1.4-5.7-2.7-8.4-4.1
					c-10.5-5.4-20.7-11.3-30.4-18.2c-5.8-4.1-11.5-8.4-17.3-12.6c-3-2.2-5.9-4.3-8.8-6.6c-0.3-0.2-0.5-0.8-0.4-1.1
					c2.3-7.6,4.6-15.2,7-22.8c2.6-8.4,5.3-16.8,9.1-24.8c2.9-5.9,5.9-11.8,9.3-17.5c3.5-5.8,7.6-11.3,11.4-16.9
					c0.3-0.4,0.9-0.9,1.4-1c4.6-0.9,9.3-1.8,14-2.7c6-1,12.1-1.4,18.2-1.4c6.1-0.1,12.2,0.4,18.2,1.1
					C519.4,49.8,532.5,53.7,545.6,58.9z M509.8,96.7c-0.4-0.2-0.7-0.5-1.1-0.5c-5.4-1.3-10.8-2.5-16.2-3.7c-0.7-0.2-1.1,0-1.4,0.6
					c-4,7.7-8,15.3-12,23c-0.7,1.3-0.6,1.6,0.8,1.9c4.9,1.5,9.9,2.9,14.9,4.4c1,0.3,1.3,0,1.8-0.8c4.2-7.9,8.5-15.8,12.8-23.8
					C509.5,97.4,509.6,97.1,509.8,96.7z M511.4,69.6c0.5-0.8,0.9-1.4,1.2-2c0.4-0.9,1-1.2,2-0.9c4,1.1,8,2.1,12,3.2
					c0.8,0.2,1.2,0.1,1.7-0.6c0.9-1.4,1.9-2.7,2.9-4c0.9-1.2,0.9-1.3-0.5-1.7c-5.8-1.6-11.7-3.1-17.5-4.7c-1.1-0.3-1.7,0-2.3,0.9
					c-2,3.4-4.1,6.7-6.2,10.1c-0.8,1.3-1.6,2.6-2.4,4c4.6,1.1,9,2.1,13.7,3.1c-0.5,0.9-0.9,1.5-1.2,2.1c-0.5,1-1.1,1.1-2.1,0.9
					c-3.8-0.9-7.6-1.7-11.3-2.6c-0.8-0.2-1.3,0-1.6,0.7c-0.8,1.5-1.7,3-2.6,4.4c-0.5,0.8-0.4,1.1,0.6,1.4c5.7,1.2,11.3,2.5,16.9,3.8
					c0.7,0.2,1,0,1.4-0.6c2.1-3.1,4.2-6.3,6.4-9.4c1-1.5,2-2.9,3.2-4.7C520.6,71.9,516.1,70.8,511.4,69.6z M479.3,161.9
					c0.2-0.5,0.4-1,0.6-1.4c2.2-5.6,4.4-11.3,6.6-16.9c1.4-3.5,3-6.9,4.5-10.4c0.4-1,0.3-1.5-0.8-1.7c-1-0.3-2.1-0.6-3.1-1
					c-0.7-0.2-1-0.1-1.3,0.6c-1.2,2.7-2.5,5.4-3.7,8.1c-0.3,0.7-0.6,0.9-1.3,0.6c-1.6-0.6-3.1-1.2-4.7-1.8c-1.4-0.5-1.5-0.6-0.8-2
					c1.1-2.3,2.2-4.6,3.4-6.8c0.5-0.9,0.3-1.4-0.8-1.7c-0.9-0.2-1.8-0.6-2.7-1c-0.8-0.4-1.3-0.2-1.6,0.7c-2.1,4.8-4.3,9.6-6.6,14.4
					c-0.4,0.8-0.1,1.2,0.6,1.5c2.7,1.1,5.5,2.3,8.2,3.4c2.8,1.2,2.8,1.2,1.7,4c-0.3,0.9-0.7,1-1.5,0.6c-3.3-1.5-6.6-3-9.9-4.4
					c-0.4-0.2-0.8-0.3-1.3-0.5c-0.9,2-1.7,4-2.6,5.9c-0.5,1-0.3,1.5,0.7,2c5.1,2.4,10.1,4.9,15.2,7.4
					C478.5,161.7,478.8,161.8,479.3,161.9z M490.2,55.9c-1.7-0.1-3-0.1-4.3-0.4s-1.9,0.2-2.5,1.2c-2.4,4.3-4.8,8.5-7.2,12.8
					c-0.2,0.3-0.3,0.6-0.4,0.9c4.6,0.5,9,1,13.7,1.5c-0.4,0.8-0.7,1.4-1,2c-0.4,1-1.1,1.3-2.2,1.1c-3.8-0.5-7.6-0.9-11.4-1.4
					c-0.7-0.1-1.2,0.1-1.5,0.8c-0.5,1-1.1,2-1.7,3c-0.4,0.7-0.7,1.4-1.1,2.3c2.3,0.2,4.2,0.4,6.2,0.6c4,0.6,8,1.2,12,1.8
					c0.8,0.1,1.2-0.1,1.6-0.8c4.5-7.6,9-15.2,13.4-22.9c0.2-0.3,0.3-0.8,0.4-1.2c-1.8-0.3-3.3-0.6-4.9-0.8c-0.4,0-1,0.3-1.2,0.6
					c-1.2,1.9-2.4,3.9-3.6,5.9c-0.9,1.5-1.7,2.9-3.8,2.1c-0.2-0.1-0.4,0-0.6,0c-1.6-0.2-3.3-0.4-5.1-0.6
					C486.8,61.6,488.4,58.9,490.2,55.9z M485,91c-0.5-0.2-0.8-0.3-1.1-0.3c-5.6-0.9-11.1-1.8-16.7-2.8c-0.8-0.1-1.1,0.1-1.4,0.7
					c-2.8,5.6-5.6,11.2-8.3,16.8c-0.9,1.7-1.6,3.5-2.5,5.5c1,0.3,1.8,0.6,2.7,0.8c1.7,0.4,1.7,0.4,2.4-1.1c2.4-4.9,4.8-9.9,7.1-14.8
					c0.5-1.1,1.1-1.3,2.1-1c1.7,0.4,3.4,0.7,5.1,1.1c2.2,0.5,2.1,0.5,1.1,2.6c-0.4,0.9-0.9,1-1.8,0.8c-1.3-0.4-2.7-0.5-4-0.9
					c-0.8-0.3-1.2,0.1-1.5,0.7c-1.1,2.3-2.2,4.6-3.4,6.9c-1,2-1.9,3.9-2.8,5.9c-0.2,0.5-0.4,0.9,0.4,1.2c2.9,0.8,5.8,1.7,8.7,2.5
					c0.8,0.2,1.1,0,1.5-0.7c0.6-1.3,1.2-2.6,1.9-3.9c0.8-1.6,0.8-1.6-0.9-2.1c-1.5-0.4-2.9-0.8-4.5-1.3c0.4-0.9,0.7-1.7,1.2-2.4
					c0.2-0.3,0.7-0.5,1-0.4c1.6,0.3,3.1,0.7,4.6,1.1c0.8,0.2,1.2,0.1,1.5-0.7c0.8-1.6,1.6-3.2,2.5-4.8C481.7,97.3,483.3,94.2,485,91
					z M444.6,143.9c0.2-0.5,0.4-0.8,0.6-1.2c2.4-5.3,4.8-10.5,7.2-15.9c0.5-1.1,1-0.7,1.8-0.5c0.9,0.3,0.7,0.9,0.4,1.5
					c-0.5,1.1-1,2.2-1.5,3.4c-1.9,4.2-3.9,8.4-5.8,12.7c-0.2,0.4-0.1,1.2,0.1,1.4c0.9,0.7,2,1.2,3,1.8c2.9-6.3,5.8-12.5,8.7-18.7
					c2.2,0.7,2.2,0.7,1.3,2.6c-2.5,5.4-5,10.8-7.4,16.2c-0.2,0.4-0.2,1.2,0,1.3c0.9,0.7,2,1.2,3,1.8c0.2-0.3,0.3-0.4,0.4-0.5
					c3.8-8.2,7.6-16.4,11.4-24.6c0.4-0.8,0.1-1.2-0.7-1.5c-4.8-1.6-9.6-3.3-14.3-5c-0.8-0.3-1.2-0.1-1.5,0.7
					c-2.9,6.6-5.9,13.2-8.8,19.8c-1.1,2.5-1.1,2.5,1.3,4C443.9,143.5,444.2,143.6,444.6,143.9z M462.6,69.9c-0.3,2.1-1.1,2.9-3,2.9
					c-4-0.1-7.9-0.1-11.9-0.2c-0.4,0-0.9,0-1.1,0.3c-0.9,1.6-1.8,3.2-2.8,5c0.8,0.1,1.2,0.2,1.7,0.2c1.6,0,3.1-0.1,4.7,0
					c4.2,0.2,8.4,0.5,12.7,0.8c0.7,0.1,1.2-0.1,1.5-0.8c2.2-4.1,4.5-8.1,6.7-12.1c0.2-0.3,0.3-0.6,0.5-1.1c-4.9,0-9.5,0-14.3,0
					c0.7-1.1,0.8-2.6,2.3-2.7c3.3-0.3,6.7-0.7,10-0.4c3.2,0.3,5-0.6,6.1-3.5c0.3-0.9,0.9-1.6,1.4-2.6c-2.7,0-5.2-0.1-7.6,0
					c-4.1,0.3-8.3,0.7-12.4,1.2c-0.4,0-1,0.4-1.2,0.8c-2.4,3.8-4.7,7.6-7.1,11.5c-0.2,0.3-0.2,0.5-0.4,0.9
					C453.3,69.9,457.9,69.9,462.6,69.9z M436.4,138.9c0.2-0.4,0.4-0.6,0.5-0.8c2.9-6.7,5.8-13.5,8.7-20.2c0.4-0.9,0.1-1.4-0.9-1.7
					c-4.6-1.5-9.2-3-13.8-4.6c-0.8-0.3-1.1,0-1.4,0.7c-0.6,1.9-1.3,3.8-1.9,5.6c-1.3,3.9-2.7,7.7-4,11.5c-0.4,1-0.2,1.6,0.8,2.2
					c3.3,2,6.6,4,9.9,6C434.9,138.1,435.6,138.5,436.4,138.9z M437.2,106c0.2-0.4,0.4-0.7,0.5-1c0.7-1.6,1.3-3.2,2-4.7
					c0.2-0.4,0.8-0.8,1.1-0.7c1.9,0.3,3.7,0.7,5.5,1c0.9,0.2,0.9,0.6,0.6,1.3c-0.8,1.6-1.4,3.2-2.2,4.8c-0.4,0.8-0.2,1.2,0.6,1.4
					c1.2,0.4,2.5,0.8,3.8,1.2c3.5-7.5,7.1-14.9,10.7-22.5c-1.3-0.1-2.5-0.2-3.7-0.3c-4.3-0.4-8.7-0.8-13-1.4
					c-2.3-0.4-3.2,0.5-3.9,2.5c-2.1,5.4-4.3,10.7-6.6,16.1c-0.3,0.8,0,1.2,0.7,1.4C434.6,105.2,435.8,105.6,437.2,106z"/>
				<path class="st23" d="M509.8,96.7c-0.2,0.5-0.4,0.7-0.5,1c-4.3,7.9-8.6,15.8-12.8,23.8c-0.5,0.9-0.8,1.1-1.8,0.8
					c-4.9-1.5-9.9-2.9-14.9-4.4c-1.3-0.4-1.5-0.7-0.8-1.9c4-7.7,8-15.3,12-23c0.3-0.7,0.7-0.8,1.4-0.6c5.4,1.3,10.8,2.5,16.2,3.7
					C509.1,96.2,509.4,96.5,509.8,96.7z"/>
				<path class="st23" d="M511.4,69.6c4.7,1.2,9.2,2.3,14,3.5c-1.2,1.8-2.2,3.3-3.2,4.7c-2.1,3.1-4.3,6.3-6.4,9.4
					c-0.4,0.5-0.7,0.7-1.4,0.6c-5.6-1.3-11.3-2.6-16.9-3.8c-1-0.2-1.1-0.6-0.6-1.4c0.9-1.5,1.8-2.9,2.6-4.4c0.4-0.7,0.9-0.9,1.6-0.7
					c3.8,0.9,7.6,1.7,11.3,2.6c1,0.2,1.7,0.1,2.1-0.9c0.3-0.7,0.7-1.3,1.2-2.1C511,76,506.6,75,502,74c0.8-1.4,1.6-2.7,2.4-4
					c2.1-3.4,4.2-6.7,6.2-10.1c0.6-1,1.2-1.3,2.3-0.9c5.8,1.6,11.7,3.1,17.5,4.7c1.4,0.4,1.4,0.6,0.5,1.7c-1,1.3-2,2.6-2.9,4
					c-0.4,0.7-0.9,0.8-1.7,0.6c-4-1.1-8-2.1-12-3.2c-1-0.3-1.6,0-2,0.9C512.3,68.2,511.9,68.8,511.4,69.6z"/>
				<path class="st23" d="M479.3,161.9c-0.5-0.2-0.8-0.3-1.2-0.5c-5.1-2.5-10.1-4.9-15.2-7.4c-1-0.5-1.2-1-0.7-2
					c0.9-1.9,1.7-3.8,2.6-5.9c0.5,0.2,0.9,0.4,1.3,0.5c3.3,1.5,6.6,2.9,9.9,4.4c0.8,0.4,1.1,0.3,1.5-0.6c1.1-2.8,1.1-2.8-1.7-4
					c-2.7-1.1-5.4-2.3-8.2-3.4c-0.8-0.3-1-0.7-0.6-1.5c2.2-4.8,4.4-9.6,6.6-14.4c0.4-0.9,0.8-1,1.6-0.7c0.9,0.4,1.8,0.7,2.7,1
					c1.1,0.3,1.2,0.8,0.8,1.7c-1.2,2.3-2.3,4.5-3.4,6.8c-0.7,1.4-0.6,1.4,0.8,2c1.6,0.6,3.2,1.1,4.7,1.8c0.7,0.3,1,0.1,1.3-0.6
					c1.2-2.7,2.5-5.4,3.7-8.1c0.3-0.7,0.6-0.8,1.3-0.6c1,0.4,2,0.7,3.1,1s1.2,0.8,0.8,1.7c-1.5,3.5-3.1,6.9-4.5,10.4
					c-2.3,5.6-4.4,11.3-6.6,16.9C479.7,161,479.5,161.4,479.3,161.9z"/>
				<path class="st23" d="M490.2,55.9c-1.8,3-3.4,5.7-5.2,8.7c1.9,0.2,3.5,0.4,5.1,0.6c0.2,0,0.4-0.1,0.6,0c2.1,0.9,3-0.5,3.8-2.1
					c1.1-2,2.3-4,3.6-5.9c0.2-0.3,0.8-0.6,1.2-0.6c1.6,0.2,3.1,0.5,4.9,0.8c-0.2,0.5-0.2,0.9-0.4,1.2c-4.5,7.6-9,15.2-13.4,22.9
					c-0.4,0.7-0.8,0.9-1.6,0.8c-4-0.6-8-1.3-12-1.8c-2-0.3-4-0.4-6.2-0.6c0.4-0.9,0.8-1.6,1.1-2.3c0.5-1,1.2-2,1.7-3
					c0.3-0.7,0.8-0.9,1.5-0.8c3.8,0.5,7.6,0.8,11.4,1.4c1.2,0.2,1.8-0.1,2.2-1.1c0.2-0.6,0.5-1.1,1-2c-4.7-0.5-9.1-1-13.7-1.5
					c0.1-0.3,0.2-0.6,0.4-0.9c2.4-4.3,4.8-8.5,7.2-12.8c0.6-1.1,1.2-1.5,2.5-1.2C487.1,55.8,488.5,55.7,490.2,55.9z"/>
				<path class="st23" d="M485,91c-1.7,3.2-3.3,6.3-4.9,9.4c-0.8,1.6-1.7,3.2-2.5,4.8c-0.3,0.7-0.7,0.9-1.5,0.7
					c-1.5-0.4-3.1-0.8-4.6-1.1c-0.3-0.1-0.8,0.2-1,0.4c-0.4,0.7-0.7,1.5-1.2,2.4c1.6,0.5,3,0.9,4.5,1.3c1.7,0.5,1.7,0.5,0.9,2.1
					c-0.6,1.3-1.3,2.5-1.9,3.9c-0.3,0.7-0.7,0.9-1.5,0.7c-2.9-0.9-5.8-1.7-8.7-2.5c-0.8-0.2-0.6-0.7-0.4-1.2c0.9-2,1.9-4,2.8-5.9
					c1.1-2.3,2.2-4.6,3.4-6.9c0.3-0.6,0.6-1,1.5-0.7c1.3,0.4,2.7,0.6,4,0.9c0.9,0.2,1.4,0.1,1.8-0.8c1-2.1,1.1-2-1.1-2.6
					c-1.7-0.4-3.4-0.7-5.1-1.1c-1-0.2-1.6,0-2.1,1c-2.3,5-4.8,9.9-7.1,14.8c-0.7,1.5-0.7,1.5-2.4,1.1c-0.9-0.2-1.7-0.5-2.7-0.8
					c0.9-1.9,1.6-3.7,2.5-5.5c2.7-5.6,5.5-11.2,8.3-16.8c0.3-0.6,0.5-0.9,1.4-0.7c5.5,1,11.1,1.8,16.7,2.8
					C484.2,90.7,484.5,90.8,485,91z"/>
				<path class="st23" d="M444.6,143.9c-0.4-0.3-0.7-0.4-1-0.6c-2.4-1.5-2.4-1.5-1.3-4c2.9-6.6,5.9-13.2,8.8-19.8
					c0.3-0.8,0.7-1,1.5-0.7c4.8,1.7,9.6,3.4,14.3,5c0.8,0.3,1.1,0.6,0.7,1.5c-3.8,8.2-7.6,16.4-11.4,24.6c-0.1,0.1-0.2,0.3-0.4,0.5
					c-1-0.6-2.1-1.1-3-1.8c-0.2-0.2-0.2-1,0-1.3c2.4-5.4,4.9-10.8,7.4-16.2c0.9-1.9,0.9-1.9-1.3-2.6c-2.9,6.2-5.7,12.3-8.7,18.7
					c-1.1-0.6-2.1-1.1-3-1.8c-0.3-0.2-0.3-1-0.1-1.4c1.9-4.2,3.9-8.5,5.8-12.7c0.5-1.1,1-2.2,1.5-3.4c0.3-0.6,0.5-1.2-0.4-1.5
					c-0.7-0.3-1.3-0.6-1.8,0.5c-2.3,5.3-4.8,10.6-7.2,15.9C445,143.1,444.8,143.4,444.6,143.9z"/>
				<path class="st23" d="M462.6,69.9c-4.7,0-9.3,0-14.1,0c0.1-0.3,0.2-0.6,0.4-0.9c2.3-3.8,4.7-7.7,7.1-11.5
					c0.2-0.4,0.8-0.7,1.2-0.8c4.1-0.4,8.2-0.9,12.4-1.2c2.4-0.2,4.9,0,7.6,0c-0.5,1-1.1,1.7-1.4,2.6c-1.1,2.9-2.9,3.8-6.1,3.5
					c-3.3-0.3-6.7,0.1-10,0.4c-1.4,0.1-1.6,1.6-2.3,2.7c4.8,0,9.5,0,14.3,0c-0.2,0.5-0.3,0.9-0.5,1.1c-2.2,4-4.5,8.1-6.7,12.1
					c-0.4,0.7-0.8,0.9-1.5,0.8c-4.2-0.3-8.4-0.6-12.7-0.8c-1.6-0.1-3.1,0-4.7,0c-0.5,0-0.9-0.1-1.7-0.2c1-1.8,1.8-3.4,2.8-5
					c0.1-0.2,0.7-0.3,1.1-0.3c4,0,7.9,0.1,11.9,0.2C461.4,72.8,462.3,72,462.6,69.9z"/>
				<path class="st23" d="M436.4,138.9c-0.8-0.4-1.5-0.8-2.2-1.2c-3.3-2-6.6-4-9.9-6c-0.9-0.6-1.1-1.2-0.8-2.2
					c1.4-3.8,2.7-7.7,4-11.5c0.7-1.9,1.3-3.7,1.9-5.6c0.2-0.8,0.6-1,1.4-0.7c4.6,1.6,9.2,3.1,13.8,4.6c0.9,0.3,1.2,0.8,0.9,1.7
					c-2.9,6.7-5.8,13.5-8.7,20.2C436.7,138.3,436.6,138.5,436.4,138.9z"/>
				<path class="st23" d="M437.2,106c-1.4-0.4-2.7-0.7-3.9-1.1c-0.7-0.2-1.1-0.5-0.7-1.4c2.2-5.4,4.5-10.7,6.6-16.1
					c0.8-1.9,1.6-2.8,3.9-2.5c4.3,0.7,8.7,1,13,1.4c1.2,0.1,2.4,0.2,3.7,0.3c-3.6,7.6-7.1,15-10.7,22.5c-1.3-0.4-2.5-0.8-3.8-1.2
					c-0.8-0.2-1-0.6-0.6-1.4c0.7-1.6,1.4-3.2,2.2-4.8c0.4-0.8,0.3-1.2-0.6-1.3c-1.8-0.3-3.7-0.8-5.5-1c-0.3-0.1-1,0.4-1.1,0.7
					c-0.7,1.5-1.3,3.1-2,4.7C437.6,105.3,437.4,105.6,437.2,106z M442.6,93.2c2.5,0.4,4.7,0.8,6.9,1.2c0.3,0,0.9,0,1-0.3
					c0.4-0.6,0.7-1.4,1.1-2.3c-2.6-0.4-5-0.8-7.3-1.2c-0.2,0-0.4,0.1-0.5,0.2C443.3,91.6,442.9,92.4,442.6,93.2z"/>
				<path class="st22" d="M442.6,93.2c0.4-0.8,0.7-1.6,1.1-2.4c0.1-0.1,0.3-0.2,0.5-0.2c2.4,0.4,4.8,0.8,7.3,1.2
					c-0.4,1-0.7,1.7-1.1,2.3c-0.1,0.2-0.7,0.3-1,0.3C447.2,94.1,445,93.7,442.6,93.2z"/>
			</g>
		</g>
	</g>
</g>
</svg>
