<?xml version="1.0" encoding="utf-8"?>
<!-- Generator: Adobe Illustrator 25.3.1, SVG Export Plug-In . SVG Version: 6.00 Build 0)  -->
<svg version="1.1" id="Layer_1" xmlns="http://www.w3.org/2000/svg" xmlns:xlink="http://www.w3.org/1999/xlink" x="0px" y="0px"
	 viewBox="0 0 819.6 1148.2" style="enable-background:new 0 0 819.6 1148.2;" xml:space="preserve">
<style type="text/css">
	.st0{display:none;}
	.st1{fill:#A3A3A3;stroke:#575756;stroke-width:19;stroke-linecap:round;stroke-linejoin:round;stroke-miterlimit:10;}
	.st2{fill:none;stroke:#575756;stroke-width:19;stroke-linecap:round;stroke-linejoin:round;stroke-miterlimit:10;}
	.st3{fill:none;stroke:#575756;stroke-width:11;stroke-miterlimit:10;}
	.st4{fill:#D9D9D9;stroke:#575756;stroke-width:11;stroke-miterlimit:10;}
	.st5{fill:#575756;}
	.st6{fill:none;stroke:#575756;stroke-width:8;stroke-miterlimit:10;}
	.st7{fill:none;stroke:#575756;stroke-width:7;stroke-miterlimit:10;}
	.st8{fill:#FF9B69;stroke:#575756;stroke-width:11;stroke-miterlimit:10;}
	.st9{fill:#EB5F0E;stroke:#575756;stroke-width:11;stroke-miterlimit:10;}
	.st10{fill:#FFFFFF;stroke:#575756;stroke-width:7;stroke-miterlimit:10;}
	.st11{fill:none;stroke:#575756;stroke-width:3;stroke-miterlimit:10;}
	.st12{fill:none;stroke:#575756;stroke-width:3;stroke-linecap:round;stroke-linejoin:round;stroke-miterlimit:10;}
	.st13{fill:#575757;}
	.st14{fill:#FFFFFF;}
	.st15{font-family:'Barlow-Bold';}
	.st16{font-size:142.0029px;}
</style>
<g id="Capa_1" class="st0">
	
		<image style="display:inline;overflow:visible;enable-background:new    ;" width="1675" height="2397" xlink:href="93A309C4481046E4.jpeg"  transform="matrix(1.1247 0 0 1.1247 -558.0817 -820.3473)">
	</image>
</g>
<g id="Personaje_1_">
	<g>
		<path class="st1" d="M115.5,162.5c0,0,444,10.5,535.5,88.5s148.1,154.8,153,222c-195,391.5-186,574.5-186,574.5L502.5,1121
			c0,0-196.6,54-403.6-15C15.4,864.4,8.6,688.4,19.7,531.6C36.6,294.2,115.5,162.5,115.5,162.5z"/>
		<path class="st2" d="M658.8,257.7c0,0-191.7,447.2-148.5,861.5"/>
		<polyline class="st3" points="19.8,531.6 549,596.6 707.1,701.7 		"/>
		<path class="st4" d="M76.5,572l414,58.5c0,0-70.5,285-37.5,468c-162,46.5-333-15-333-15S30,648.5,76.5,572z"/>
		<path class="st4" d="M76.5,572l414,58.5c0,0-70.5,285-37.5,468c-162,46.5-333-15-333-15S30,648.5,76.5,572z"/>
		<g>
			<g>
				<path class="st5" d="M243,1114.5c-18.1-114-17.2-249-13.2-342.2c4.3-100.8,13-175.7,13.1-176.5l26.8,3.1
					c-0.3,2.9-34.1,297.1-0.1,511.3L243,1114.5z"/>
			</g>
		</g>
		<line class="st6" x1="64.3" y1="634.3" x2="478.6" y2="695.1"/>
		<line class="st6" x1="64.3" y1="707.6" x2="465.9" y2="764.1"/>
		<line class="st6" x1="73.7" y1="776.6" x2="456.5" y2="829.2"/>
		<line class="st7" x1="78.5" y1="849.5" x2="448.8" y2="897"/>
		<line class="st7" x1="90.3" y1="928.9" x2="444.6" y2="969.1"/>
		<line class="st7" x1="103.1" y1="1004.8" x2="444.6" y2="1036.5"/>
		<line class="st7" x1="663" y1="395" x2="745.5" y2="494"/>
		<line class="st7" x1="645.7" y1="426.7" x2="728.2" y2="525.7"/>
		<line class="st7" x1="624.6" y1="465.3" x2="707.1" y2="564.3"/>
		<circle class="st5" cx="582.9" cy="583.9" r="11.9"/>
		<circle class="st5" cx="687" cy="655.6" r="11.9"/>
		<circle class="st5" cx="668.3" cy="713.6" r="11.9"/>
		<circle class="st5" cx="565.5" cy="664.7" r="11.9"/>
		<g>
			<g>
				<path class="st5" d="M232.2,482.2c3.5-1.8,6.9-3.2,10.4-4.4c3.5-1.2,7.1-2.2,10.8-3.1c7.3-1.7,14.7-2.7,22.3-3.1
					c15-0.8,30.3,1.3,44.9,5.8c7.3,2.2,14.3,5.2,21.1,8.7c6.8,3.5,13.1,7.7,19.2,12.3c11.9,9.4,22.1,20.7,29.7,33.3l-6.2,5.1
					c-10.6-9.4-21.4-17.9-32.9-25l-4.4-2.5l-2.2-1.3l-2.2-1.1c-1.5-0.8-3-1.6-4.5-2.3c-1.5-0.7-3-1.4-4.5-2.1
					c-6.1-2.7-12.3-5.1-18.7-7.1c-12.8-3.8-26-6.3-39.6-7.4c-6.8-0.6-13.6-0.9-20.5-0.9c-3.5,0-6.9,0-10.4,0.2
					c-1.8,0-3.5,0.1-5.2,0.2s-3.5,0.2-5.2,0.3L232.2,482.2z"/>
			</g>
		</g>
		<g>
			<g>
				<path class="st8" d="M383,138.9c0,0-119,9.3-35.7,100s214.5,4.9,214.5,4.9L383,138.9z"/>
				<path class="st9" d="M532.7,30.5C452.5,30.5,387,67.6,383,138.9c139,141.7,253.7,103.6,266.9,110.5c20.4-23,32.6-52.2,32.6-84
					C682.5,90.9,615.4,30.5,532.7,30.5z"/>
				<path class="st10" d="M679.5,205.5c-5.2,21.8-10.5,41.2-20.7,52.2c-36.1,0-65.1-6.7-65.1-6.7c15-133.8-27.3-217-27.3-217
					s14.4-0.2,40.1,11.5C625.7,54.2,709,80.9,679.5,205.5z"/>
			</g>
			<line class="st11" x1="581" y1="70.7" x2="597.4" y2="43.3"/>
			<line class="st11" x1="589.2" y1="102.8" x2="626.8" y2="58.9"/>
			<line class="st11" x1="595.3" y1="143.6" x2="660.3" y2="80.9"/>
			<line class="st11" x1="595.3" y1="192.5" x2="677.5" y2="119"/>
			<line class="st11" x1="594.6" y1="238.9" x2="687" y2="158.7"/>
			<path class="st12" d="M572.3,33.9c0,0,84.9,90.6,48,219.7l63.5-61.1"/>
			<path class="st11" d="M613.8,51c0,0,85.9,82.5,38,202.6"/>
			<ellipse class="st5" cx="575.2" cy="21.8" rx="13.4" ry="8.6"/>
		</g>
	</g>
</g>
<g id="Capa_4_1_">
	<g>
		<g>
			<path class="st13" d="M554,76c-14.4,17.5-27.8,35.4-38.3,55.4c-10.5,19.9-18.1,40.8-24.8,62.3c-2.8-1.4-5.7-2.7-8.4-4.1
				c-10.5-5.4-20.7-11.3-30.4-18.2c-5.8-4.1-11.5-8.4-17.3-12.6c-3-2.2-5.9-4.3-8.8-6.6c-0.3-0.2-0.5-0.8-0.4-1.1
				c2.3-7.6,4.6-15.2,7-22.8c2.6-8.4,5.3-16.8,9.1-24.8c2.9-5.9,5.9-11.8,9.3-17.5c3.5-5.8,7.6-11.3,11.4-16.9
				c0.3-0.4,0.9-0.9,1.4-1c4.6-0.9,9.3-1.8,14-2.7c6-1,12.1-1.4,18.2-1.4c6.1-0.1,12.2,0.4,18.2,1.1C527.9,66.9,541,70.9,554,76z
				 M518.3,113.8c-0.4-0.2-0.7-0.5-1.1-0.5c-5.4-1.3-10.8-2.5-16.2-3.7c-0.7-0.2-1.1,0-1.4,0.6c-4,7.7-8,15.3-12,23
				c-0.7,1.3-0.6,1.6,0.8,1.9c4.9,1.5,9.9,2.9,14.9,4.4c1,0.3,1.3,0,1.8-0.8c4.2-7.9,8.5-15.8,12.8-23.8
				C517.9,114.6,518.1,114.3,518.3,113.8z M519.9,86.7c0.5-0.8,0.9-1.4,1.2-2c0.4-0.9,1-1.2,2-0.9c4,1.1,8,2.1,12,3.2
				c0.8,0.2,1.2,0.1,1.7-0.6c0.9-1.4,1.9-2.7,2.9-4c0.9-1.2,0.9-1.3-0.5-1.7c-5.8-1.6-11.7-3.1-17.5-4.7c-1.1-0.3-1.7,0-2.3,0.9
				c-2,3.4-4.1,6.7-6.2,10.1c-0.8,1.3-1.6,2.6-2.4,4c4.6,1.1,9,2.1,13.7,3.1c-0.5,0.9-0.9,1.5-1.2,2.1c-0.5,1-1.1,1.1-2.1,0.9
				c-3.8-0.9-7.6-1.7-11.3-2.6c-0.8-0.2-1.3,0-1.6,0.7c-0.8,1.5-1.7,3-2.6,4.4c-0.5,0.8-0.4,1.1,0.6,1.4c5.7,1.2,11.3,2.5,16.9,3.8
				c0.7,0.2,1,0,1.4-0.6c2.1-3.1,4.2-6.3,6.4-9.4c1-1.5,2-2.9,3.2-4.7C529.1,89,524.6,87.9,519.9,86.7z M487.8,179.1
				c0.2-0.5,0.4-1,0.6-1.4c2.2-5.6,4.4-11.3,6.6-16.9c1.4-3.5,3-6.9,4.5-10.4c0.4-1,0.3-1.5-0.8-1.7c-1-0.3-2.1-0.6-3.1-1
				c-0.7-0.2-1-0.1-1.3,0.6c-1.2,2.7-2.5,5.4-3.7,8.1c-0.3,0.7-0.6,0.9-1.3,0.6c-1.6-0.6-3.1-1.2-4.7-1.8c-1.4-0.5-1.5-0.6-0.8-2
				c1.1-2.3,2.2-4.6,3.4-6.8c0.5-0.9,0.3-1.4-0.8-1.7c-0.9-0.2-1.8-0.6-2.7-1c-0.8-0.4-1.3-0.2-1.6,0.7c-2.1,4.8-4.3,9.6-6.6,14.4
				c-0.4,0.8-0.1,1.2,0.6,1.5c2.7,1.1,5.5,2.3,8.2,3.4c2.8,1.2,2.8,1.2,1.7,4c-0.3,0.9-0.7,1-1.5,0.6c-3.3-1.5-6.6-3-9.9-4.4
				c-0.4-0.2-0.8-0.3-1.3-0.5c-0.9,2-1.7,4-2.6,5.9c-0.5,1-0.3,1.5,0.7,2c5.1,2.4,10.1,4.9,15.2,7.4
				C486.9,178.8,487.3,178.9,487.8,179.1z M498.6,73c-1.7-0.1-3-0.1-4.3-0.4s-1.9,0.2-2.5,1.2c-2.4,4.3-4.8,8.5-7.2,12.8
				c-0.2,0.3-0.3,0.6-0.4,0.9c4.6,0.5,9,1,13.7,1.5c-0.4,0.8-0.7,1.4-1,2c-0.4,1-1.1,1.3-2.2,1.1c-3.8-0.5-7.6-0.9-11.4-1.4
				c-0.7-0.1-1.2,0.1-1.5,0.8c-0.5,1-1.1,2-1.7,3c-0.4,0.7-0.7,1.4-1.1,2.3c2.3,0.2,4.2,0.4,6.2,0.6c4,0.6,8,1.2,12,1.8
				c0.8,0.1,1.2-0.1,1.6-0.8c4.5-7.6,9-15.2,13.4-22.9c0.2-0.3,0.3-0.8,0.4-1.2c-1.8-0.3-3.3-0.6-4.9-0.8c-0.4,0-1,0.3-1.2,0.6
				c-1.2,1.9-2.4,3.9-3.6,5.9c-0.9,1.5-1.7,2.9-3.8,2.1c-0.2-0.1-0.4,0-0.6,0c-1.6-0.2-3.3-0.4-5.1-0.6
				C495.2,78.8,496.8,76,498.6,73z M493.5,108.1c-0.5-0.2-0.8-0.3-1.1-0.3c-5.6-0.9-11.1-1.8-16.7-2.8c-0.8-0.1-1.1,0.1-1.4,0.7
				c-2.8,5.6-5.6,11.2-8.3,16.8c-0.9,1.7-1.6,3.5-2.5,5.5c1,0.3,1.8,0.6,2.7,0.8c1.7,0.4,1.7,0.4,2.4-1.1c2.4-4.9,4.8-9.9,7.1-14.8
				c0.5-1.1,1.1-1.3,2.1-1c1.7,0.4,3.4,0.7,5.1,1.1c2.2,0.5,2.1,0.5,1.1,2.6c-0.4,0.9-0.9,1-1.8,0.8c-1.3-0.4-2.7-0.5-4-0.9
				c-0.8-0.3-1.2,0.1-1.5,0.7c-1.1,2.3-2.2,4.6-3.4,6.9c-1,2-1.9,3.9-2.8,5.9c-0.2,0.5-0.4,0.9,0.4,1.2c2.9,0.8,5.8,1.7,8.7,2.5
				c0.8,0.2,1.1,0,1.5-0.7c0.6-1.3,1.2-2.6,1.9-3.9c0.8-1.6,0.8-1.6-0.9-2.1c-1.5-0.4-2.9-0.8-4.5-1.3c0.4-0.9,0.7-1.7,1.2-2.4
				c0.2-0.3,0.7-0.5,1-0.4c1.6,0.3,3.1,0.7,4.6,1.1c0.8,0.2,1.2,0.1,1.5-0.7c0.8-1.6,1.6-3.2,2.5-4.8
				C490.1,114.4,491.8,111.3,493.5,108.1z M453,161c0.2-0.5,0.4-0.8,0.6-1.2c2.4-5.3,4.8-10.5,7.2-15.9c0.5-1.1,1-0.7,1.8-0.5
				c0.9,0.3,0.7,0.9,0.4,1.5c-0.5,1.1-1,2.2-1.5,3.4c-1.9,4.2-3.9,8.4-5.8,12.7c-0.2,0.4-0.1,1.2,0.1,1.4c0.9,0.7,2,1.2,3,1.8
				c2.9-6.3,5.8-12.5,8.7-18.7c2.2,0.7,2.2,0.7,1.3,2.6c-2.5,5.4-5,10.8-7.4,16.2c-0.2,0.4-0.2,1.2,0,1.3c0.9,0.7,2,1.2,3,1.8
				c0.2-0.3,0.3-0.4,0.4-0.5c3.8-8.2,7.6-16.4,11.4-24.6c0.4-0.8,0.1-1.2-0.7-1.5c-4.8-1.6-9.6-3.3-14.3-5c-0.8-0.3-1.2-0.1-1.5,0.7
				c-2.9,6.6-5.9,13.2-8.8,19.8c-1.1,2.5-1.1,2.5,1.3,4C452.3,160.6,452.6,160.8,453,161z M471.1,87.1c-0.3,2.1-1.1,2.9-3,2.9
				c-4-0.1-7.9-0.1-11.9-0.2c-0.4,0-0.9,0-1.1,0.3c-0.9,1.6-1.8,3.2-2.8,5c0.8,0.1,1.2,0.2,1.7,0.2c1.6,0,3.1-0.1,4.7,0
				c4.2,0.2,8.4,0.5,12.7,0.8c0.7,0.1,1.2-0.1,1.5-0.8c2.2-4.1,4.5-8.1,6.7-12.1c0.2-0.3,0.3-0.6,0.5-1.1c-4.9,0-9.5,0-14.3,0
				c0.7-1.1,0.8-2.6,2.3-2.7c3.3-0.3,6.7-0.7,10-0.4c3.2,0.3,5-0.6,6.1-3.5c0.3-0.9,0.9-1.6,1.4-2.6c-2.7,0-5.2-0.1-7.6,0
				c-4.1,0.3-8.3,0.7-12.4,1.2c-0.4,0-1,0.4-1.2,0.8c-2.4,3.8-4.7,7.6-7.1,11.5c-0.2,0.3-0.2,0.5-0.4,0.9
				C461.7,87.1,466.4,87.1,471.1,87.1z M444.8,156c0.2-0.4,0.4-0.6,0.5-0.8c2.9-6.7,5.8-13.5,8.7-20.2c0.4-0.9,0.1-1.4-0.9-1.7
				c-4.6-1.5-9.2-3-13.8-4.6c-0.8-0.3-1.1,0-1.4,0.7c-0.6,1.9-1.3,3.8-1.9,5.6c-1.3,3.9-2.7,7.7-4,11.5c-0.4,1-0.2,1.6,0.8,2.2
				c3.3,2,6.6,4,9.9,6C443.3,155.2,444,155.6,444.8,156z M445.7,123.1c0.2-0.4,0.4-0.7,0.5-1c0.7-1.6,1.3-3.2,2-4.7
				c0.2-0.4,0.8-0.8,1.1-0.7c1.9,0.3,3.7,0.7,5.5,1c0.9,0.2,0.9,0.6,0.6,1.3c-0.8,1.6-1.4,3.2-2.2,4.8c-0.4,0.8-0.2,1.2,0.6,1.4
				c1.2,0.4,2.5,0.8,3.8,1.2c3.5-7.5,7.1-14.9,10.7-22.5c-1.3-0.1-2.5-0.2-3.7-0.3c-4.3-0.4-8.7-0.8-13-1.4
				c-2.3-0.4-3.2,0.5-3.9,2.5c-2.1,5.4-4.3,10.7-6.6,16.1c-0.3,0.8,0,1.2,0.7,1.4C443,122.4,444.3,122.7,445.7,123.1z"/>
			<path class="st14" d="M518.3,113.8c-0.2,0.5-0.4,0.7-0.5,1c-4.3,7.9-8.6,15.8-12.8,23.8c-0.5,0.9-0.8,1.1-1.8,0.8
				c-4.9-1.5-9.9-2.9-14.9-4.4c-1.3-0.4-1.5-0.7-0.8-1.9c4-7.7,8-15.3,12-23c0.3-0.7,0.7-0.8,1.4-0.6c5.4,1.3,10.8,2.5,16.2,3.7
				C517.6,113.4,517.9,113.6,518.3,113.8z"/>
			<path class="st14" d="M519.9,86.7c4.7,1.2,9.2,2.3,14,3.5c-1.2,1.8-2.2,3.3-3.2,4.7c-2.1,3.1-4.3,6.3-6.4,9.4
				c-0.4,0.5-0.7,0.7-1.4,0.6c-5.6-1.3-11.3-2.6-16.9-3.8c-1-0.2-1.1-0.6-0.6-1.4c0.9-1.5,1.8-2.9,2.6-4.4c0.4-0.7,0.9-0.9,1.6-0.7
				c3.8,0.9,7.6,1.7,11.3,2.6c1,0.2,1.7,0.1,2.1-0.9c0.3-0.7,0.7-1.3,1.2-2.1c-4.7-1.1-9.1-2.1-13.7-3.1c0.8-1.4,1.6-2.7,2.4-4
				c2.1-3.4,4.2-6.7,6.2-10.1c0.6-1,1.2-1.3,2.3-0.9c5.8,1.6,11.7,3.1,17.5,4.7c1.4,0.4,1.4,0.6,0.5,1.7c-1,1.3-2,2.6-2.9,4
				c-0.4,0.7-0.9,0.8-1.7,0.6c-4-1.1-8-2.1-12-3.2c-1-0.3-1.6,0-2,0.9C520.8,85.4,520.3,86,519.9,86.7z"/>
			<path class="st14" d="M487.8,179.1c-0.5-0.2-0.8-0.3-1.2-0.5c-5.1-2.5-10.1-4.9-15.2-7.4c-1-0.5-1.2-1-0.7-2
				c0.9-1.9,1.7-3.8,2.6-5.9c0.5,0.2,0.9,0.4,1.3,0.5c3.3,1.5,6.6,2.9,9.9,4.4c0.8,0.4,1.1,0.3,1.5-0.6c1.1-2.8,1.1-2.8-1.7-4
				c-2.7-1.1-5.4-2.3-8.2-3.4c-0.8-0.3-1-0.7-0.6-1.5c2.2-4.8,4.4-9.6,6.6-14.4c0.4-0.9,0.8-1,1.6-0.7c0.9,0.4,1.8,0.7,2.7,1
				c1.1,0.3,1.2,0.8,0.8,1.7c-1.2,2.3-2.3,4.5-3.4,6.8c-0.7,1.4-0.6,1.4,0.8,2c1.6,0.6,3.2,1.1,4.7,1.8c0.7,0.3,1,0.1,1.3-0.6
				c1.2-2.7,2.5-5.4,3.7-8.1c0.3-0.7,0.6-0.8,1.3-0.6c1,0.4,2,0.7,3.1,1s1.2,0.8,0.8,1.7c-1.5,3.5-3.1,6.9-4.5,10.4
				c-2.3,5.6-4.4,11.3-6.6,16.9C488.2,178.1,488,178.6,487.8,179.1z"/>
			<path class="st14" d="M498.6,73c-1.8,3-3.4,5.7-5.2,8.7c1.9,0.2,3.5,0.4,5.1,0.6c0.2,0,0.4-0.1,0.6,0c2.1,0.9,3-0.5,3.8-2.1
				c1.1-2,2.3-4,3.6-5.9c0.2-0.3,0.8-0.6,1.2-0.6c1.6,0.2,3.1,0.5,4.9,0.8c-0.2,0.5-0.2,0.9-0.4,1.2c-4.5,7.6-9,15.2-13.4,22.9
				c-0.4,0.7-0.8,0.9-1.6,0.8c-4-0.6-8-1.3-12-1.8c-2-0.3-4-0.4-6.2-0.6c0.4-0.9,0.8-1.6,1.1-2.3c0.5-1,1.2-2,1.7-3
				c0.3-0.7,0.8-0.9,1.5-0.8c3.8,0.5,7.6,0.8,11.4,1.4c1.2,0.2,1.8-0.1,2.2-1.1c0.2-0.6,0.5-1.1,1-2c-4.7-0.5-9.1-1-13.7-1.5
				c0.1-0.3,0.2-0.6,0.4-0.9c2.4-4.3,4.8-8.5,7.2-12.8c0.6-1.1,1.2-1.5,2.5-1.2C495.6,72.9,497,72.9,498.6,73z"/>
			<path class="st14" d="M493.5,108.1c-1.7,3.2-3.3,6.3-4.9,9.4c-0.8,1.6-1.7,3.2-2.5,4.8c-0.3,0.7-0.7,0.9-1.5,0.7
				c-1.5-0.4-3.1-0.8-4.6-1.1c-0.3-0.1-0.8,0.2-1,0.4c-0.4,0.7-0.7,1.5-1.2,2.4c1.6,0.5,3,0.9,4.5,1.3c1.7,0.5,1.7,0.5,0.9,2.1
				c-0.6,1.3-1.3,2.5-1.9,3.9c-0.3,0.7-0.7,0.9-1.5,0.7c-2.9-0.9-5.8-1.7-8.7-2.5c-0.8-0.2-0.6-0.7-0.4-1.2c0.9-2,1.9-4,2.8-5.9
				c1.1-2.3,2.2-4.6,3.4-6.9c0.3-0.6,0.6-1,1.5-0.7c1.3,0.4,2.7,0.6,4,0.9c0.9,0.2,1.4,0.1,1.8-0.8c1-2.1,1.1-2-1.1-2.6
				c-1.7-0.4-3.4-0.7-5.1-1.1c-1-0.2-1.6,0-2.1,1c-2.3,5-4.8,9.9-7.1,14.8c-0.7,1.5-0.7,1.5-2.4,1.1c-0.9-0.2-1.7-0.5-2.7-0.8
				c0.9-1.9,1.6-3.7,2.5-5.5c2.7-5.6,5.5-11.2,8.3-16.8c0.3-0.6,0.5-0.9,1.4-0.7c5.5,1,11.1,1.8,16.7,2.8
				C492.7,107.8,493,107.9,493.5,108.1z"/>
			<path class="st14" d="M453,161c-0.4-0.3-0.7-0.4-1-0.6c-2.4-1.5-2.4-1.5-1.3-4c2.9-6.6,5.9-13.2,8.8-19.8c0.3-0.8,0.7-1,1.5-0.7
				c4.8,1.7,9.6,3.4,14.3,5c0.8,0.3,1.1,0.6,0.7,1.5c-3.8,8.2-7.6,16.4-11.4,24.6c-0.1,0.1-0.2,0.3-0.4,0.5c-1-0.6-2.1-1.1-3-1.8
				c-0.2-0.2-0.2-1,0-1.3c2.4-5.4,4.9-10.8,7.4-16.2c0.9-1.9,0.9-1.9-1.3-2.6c-2.9,6.2-5.7,12.3-8.7,18.7c-1.1-0.6-2.1-1.1-3-1.8
				c-0.3-0.2-0.3-1-0.1-1.4c1.9-4.2,3.9-8.5,5.8-12.7c0.5-1.1,1-2.2,1.5-3.4c0.3-0.6,0.5-1.2-0.4-1.5c-0.7-0.3-1.3-0.6-1.8,0.5
				c-2.3,5.3-4.8,10.6-7.2,15.9C453.4,160.2,453.3,160.6,453,161z"/>
			<path class="st14" d="M471.1,87.1c-4.7,0-9.3,0-14.1,0c0.1-0.3,0.2-0.6,0.4-0.9c2.3-3.8,4.7-7.7,7.1-11.5
				c0.2-0.4,0.8-0.7,1.2-0.8c4.1-0.4,8.2-0.9,12.4-1.2c2.4-0.2,4.9,0,7.6,0c-0.5,1-1.1,1.7-1.4,2.6c-1.1,2.9-2.9,3.8-6.1,3.5
				c-3.3-0.3-6.7,0.1-10,0.4c-1.4,0.1-1.6,1.6-2.3,2.7c4.8,0,9.5,0,14.3,0c-0.2,0.5-0.3,0.9-0.5,1.1c-2.2,4-4.5,8.1-6.7,12.1
				c-0.4,0.7-0.8,0.9-1.5,0.8c-4.2-0.3-8.4-0.6-12.7-0.8c-1.6-0.1-3.1,0-4.7,0c-0.5,0-0.9-0.1-1.7-0.2c1-1.8,1.8-3.4,2.8-5
				c0.1-0.2,0.7-0.3,1.1-0.3c4,0,7.9,0.1,11.9,0.2C469.9,90,470.8,89.2,471.1,87.1z"/>
			<path class="st14" d="M444.8,156c-0.8-0.4-1.5-0.8-2.2-1.2c-3.3-2-6.6-4-9.9-6c-0.9-0.6-1.1-1.2-0.8-2.2c1.4-3.8,2.7-7.7,4-11.5
				c0.7-1.9,1.3-3.7,1.9-5.6c0.2-0.8,0.6-1,1.4-0.7c4.6,1.6,9.2,3.1,13.8,4.6c0.9,0.3,1.2,0.8,0.9,1.7c-2.9,6.7-5.8,13.5-8.7,20.2
				C445.2,155.5,445,155.7,444.8,156z"/>
			<path class="st14" d="M445.7,123.1c-1.4-0.4-2.7-0.7-3.9-1.1c-0.7-0.2-1.1-0.5-0.7-1.4c2.2-5.4,4.5-10.7,6.6-16.1
				c0.8-1.9,1.6-2.8,3.9-2.5c4.3,0.7,8.7,1,13,1.4c1.2,0.1,2.4,0.2,3.7,0.3c-3.6,7.6-7.1,15-10.7,22.5c-1.3-0.4-2.5-0.8-3.8-1.2
				c-0.8-0.2-1-0.6-0.6-1.4c0.7-1.6,1.4-3.2,2.2-4.8c0.4-0.8,0.3-1.2-0.6-1.3c-1.8-0.3-3.7-0.8-5.5-1c-0.3-0.1-1,0.4-1.1,0.7
				c-0.7,1.5-1.3,3.1-2,4.7C446,122.4,445.9,122.7,445.7,123.1z M451,110.4c2.5,0.4,4.7,0.8,6.9,1.2c0.3,0,0.9,0,1-0.3
				c0.4-0.6,0.7-1.4,1.1-2.3c-2.6-0.4-5-0.8-7.3-1.2c-0.2,0-0.4,0.1-0.5,0.2C451.7,108.8,451.4,109.6,451,110.4z"/>
			<path class="st13" d="M451,110.4c0.4-0.8,0.7-1.6,1.1-2.4c0.1-0.1,0.3-0.2,0.5-0.2c2.4,0.4,4.8,0.8,7.3,1.2
				c-0.4,1-0.7,1.7-1.1,2.3c-0.1,0.2-0.7,0.3-1,0.3C455.7,111.2,453.5,110.8,451,110.4z"/>
		</g>
	</g>
</g>
<text transform="matrix(0.9906 0.1365 -0.1365 0.9906 90.3002 394.9998)" class="st5 st15 st16">8.8</text>
</svg>
