<?xml version="1.0" encoding="utf-8"?>
<!-- Generator: Adobe Illustrator 25.3.1, SVG Export Plug-In . SVG Version: 6.00 Build 0)  -->
<svg version="1.1" id="Layer_1" xmlns="http://www.w3.org/2000/svg" xmlns:xlink="http://www.w3.org/1999/xlink" x="0px" y="0px"
	 viewBox="0 0 808.6 1138.7" style="enable-background:new 0 0 808.6 1138.7;" xml:space="preserve">
<style type="text/css">
	.st0{display:none;}
	.st1{fill:#A3A3A3;stroke:#575756;stroke-width:19;stroke-linecap:round;stroke-linejoin:round;stroke-miterlimit:10;}
	.st2{fill:none;stroke:#575756;stroke-width:19;stroke-linecap:round;stroke-linejoin:round;stroke-miterlimit:10;}
	.st3{fill:none;stroke:#575756;stroke-width:11;stroke-miterlimit:10;}
	.st4{fill:#D9D9D9;stroke:#575756;stroke-width:11;stroke-miterlimit:10;}
	.st5{fill:#575756;}
	.st6{fill:none;stroke:#575756;stroke-width:8;stroke-miterlimit:10;}
	.st7{fill:none;stroke:#575756;stroke-width:7;stroke-miterlimit:10;}
	.st8{fill:none;stroke:#575756;stroke-width:6.56;stroke-miterlimit:10;}
	.st9{fill:#FF9B69;stroke:#575756;stroke-width:11;stroke-miterlimit:10;}
	.st10{fill:#EB5F0E;stroke:#575756;stroke-width:11;stroke-miterlimit:10;}
	.st11{fill:#FFFFFF;stroke:#575756;stroke-width:7;stroke-miterlimit:10;}
	.st12{fill:none;stroke:#575756;stroke-width:3;stroke-miterlimit:10;}
	.st13{fill:none;stroke:#575756;stroke-width:3;stroke-linecap:round;stroke-linejoin:round;stroke-miterlimit:10;}
	.st14{fill:#FFFFFF;}
</style>
<g id="Capa_1" class="st0">
	
		<image style="display:inline;overflow:visible;enable-background:new    ;" width="1675" height="2397" xlink:href="34664C0DCB2C32D3.jpeg"  transform="matrix(1.1247 0 0 1.1247 -565.0743 -829.5516)">
	</image>
</g>
<g id="Personaje">
	<g>
		<path class="st1" d="M109.6,149.2c0,0,444,10.5,535.5,88.5s148.1,154.8,153,222c-195,391.5-186,574.5-186,574.5l-115.5,73.5
			c0,0-196.6,54-403.6-15C9.5,851.2,2.7,675.2,13.8,518.4C30.7,280.9,109.6,149.2,109.6,149.2z"/>
		<path class="st2" d="M652.9,244.5c0,0-191.7,447.2-148.5,861.5"/>
		<polyline class="st3" points="13.8,518.4 543.1,583.4 701.2,688.5 		"/>
		<path class="st4" d="M70.6,558.7l414,58.5c0,0-70.5,285-37.5,468c-162,46.5-333-15-333-15S24.1,635.2,70.6,558.7z"/>
		<g>
			<g>
				<path class="st5" d="M237.1,1101.2c-18.1-114-17.2-249-13.2-342.2c4.3-100.8,13-175.7,13.1-176.5l26.8,3.1
					c-0.3,2.9-34.1,297.1-0.1,511.3L237.1,1101.2z"/>
			</g>
		</g>
		<line class="st6" x1="58.4" y1="621.1" x2="472.6" y2="681.9"/>
		<line class="st6" x1="58.4" y1="694.4" x2="459.9" y2="750.9"/>
		<line class="st6" x1="67.7" y1="763.4" x2="450.6" y2="816"/>
		<line class="st7" x1="72.6" y1="836.3" x2="442.9" y2="883.8"/>
		<line class="st7" x1="84.3" y1="915.7" x2="438.7" y2="955.8"/>
		<line class="st7" x1="97.2" y1="991.5" x2="438.7" y2="1023.2"/>
		<line class="st7" x1="657.1" y1="381.7" x2="739.6" y2="480.7"/>
		<line class="st7" x1="639.8" y1="413.5" x2="722.3" y2="512.5"/>
		<line class="st7" x1="618.7" y1="452.1" x2="701.2" y2="551.1"/>
		<circle class="st5" cx="577" cy="570.7" r="11.9"/>
		<circle class="st5" cx="681" cy="642.3" r="11.9"/>
		<circle class="st5" cx="662.4" cy="700.4" r="11.9"/>
		<circle class="st5" cx="559.5" cy="651.5" r="11.9"/>
		<g>
			<g>
				<path class="st5" d="M243.8,440.4c0.9-0.5,1.7-1,2.5-1.4s1.6-0.8,2.5-1.2c1.7-0.8,3.3-1.4,5-2.1c3.4-1.3,6.9-2.3,10.4-3.1
					c7.1-1.6,14.3-2.5,21.6-2.7c14.6-0.4,29.3,2.3,43,7.2c3.4,1.3,6.8,2.6,10.1,4.2l2.5,1.2c0.8,0.4,1.7,0.8,2.4,1.2l4.8,2.6
					c1.6,0.8,3.1,1.9,4.6,2.8c1.5,1,3.1,1.9,4.5,3c2.9,2.1,5.9,4.2,8.6,6.6c1.4,1.2,2.8,2.2,4.1,3.5l3.9,3.7l1.9,1.9l1.8,2l3.6,4
					c2.3,2.7,4.5,5.5,6.6,8.3c2,2.9,4,5.9,5.8,8.9l-4.4,4c-2.9-1.9-5.7-3.9-8.4-5.8c-1.4-0.9-2.8-1.9-4.2-2.8c-1.4-1-2.7-2-4.1-2.9
					l-4.1-2.8l-2-1.4l-2.1-1.3l-4.1-2.7c-1.4-0.9-2.8-1.7-4.2-2.5l-2.1-1.2c-0.7-0.4-1.4-0.8-2.1-1.2l-4.2-2.3
					c-1.4-0.8-2.8-1.5-4.2-2.3l-2.1-1.1c-0.7-0.4-1.4-0.8-2.1-1.1c-5.7-2.8-11.6-5.3-17.5-7.6c-11.9-4.4-24.2-7.4-36.9-8.9
					c-6.3-0.8-12.8-1.1-19.2-1.1c-3.2,0-6.5,0.1-9.8,0.3l-2.4,0.2l-2.5,0.2c-0.8,0.1-1.6,0.2-2.4,0.2l-2.3,0.3L243.8,440.4z"/>
			</g>
			<path class="st5" d="M149.6,257.6c0,0-42.1,96.6,17.2,117.7c59.3,21,83.2-57.3,84.2-80.3C181.2,290.1,149.6,257.6,149.6,257.6z
				 M203.7,344.1c-7.2,0-13-5.8-13-13s5.8-13,13-13s13,5.8,13,13C216.7,338.3,210.9,344.1,203.7,344.1z"/>
			<path class="st5" d="M337.8,313c1,23.1,24.9,101.7,84.4,80.6s17.3-118,17.3-118S407.8,308.2,337.8,313z M372.2,349.4
				c0-7.2,5.8-13,13-13s13,5.8,13,13s-5.8,13-13,13S372.2,356.6,372.2,349.4z"/>
			<g>
				<path class="st5" d="M168.1,203.6c4.5,6.2,9,12,13.8,17.3c4.8,5.4,9.9,10.5,15.3,15.2c5.5,4.7,11.3,9.1,17.5,13.2
					c1.5,1,3.1,2,4.7,3c1.6,1,3.2,2,4.8,3c1.6,1,3.3,1.9,5,3c1.7,1,3.4,2,5,3c-2-0.1-4-0.2-5.9-0.4c-1-0.1-2-0.3-2.9-0.4
					c-1-0.2-2-0.3-2.9-0.5c-1.9-0.4-3.9-0.8-5.8-1.4l-2.9-0.9c-0.9-0.3-1.9-0.7-2.8-1c-7.5-2.7-14.6-6.7-21.1-11.6
					c-6.4-4.9-12.2-10.9-16.5-17.8c-2.2-3.5-4-7.1-5.4-10.9c-1.4-3.8-2.4-7.8-2.5-12L168.1,203.6z"/>
			</g>
			<g>
				<path class="st5" d="M436.4,220.5c-1.8,4.5-4.4,8.4-7.3,12.1c-3,3.7-6.3,7-9.9,10c-7.3,6-15.6,10.7-24.5,13.9
					c-8.9,3.2-18.1,5.2-27.3,5.7l-3.5,0.2h-3.5c-2.3,0-4.6-0.2-6.9-0.3c-1.1-0.1-2.3-0.2-3.4-0.4c-1.1-0.2-2.3-0.3-3.4-0.5
					c-2.3-0.4-4.5-0.9-6.7-1.5c2.2-0.5,4.5-0.9,6.7-1.3c2.2-0.5,4.4-0.8,6.6-1.3s4.3-0.9,6.5-1.4l3.2-0.7l3.2-0.8
					c4.2-1.1,8.3-2.3,12.4-3.7l3-1c1-0.4,2-0.8,3-1.1s2-0.8,3-1.2s2-0.8,2.9-1.2c7.8-3.4,15.3-7.3,22.5-11.8s14.3-9.4,21.2-15
					L436.4,220.5z"/>
			</g>
			<g>
				<path class="st5" d="M546.6,257.6c3.2,3.6,5.5,7.8,6.8,12.6c0.7,2.3,1.1,4.9,1.1,7.5s-0.4,5.3-1.5,8c-1.1,2.5-2.9,4.9-5,6.6
					c-2.1,1.8-4.5,3-7,3.6c-4.9,1.5-9.7,1.5-14.4,0.7l-0.1-1.4c4.4-1.4,8.6-2.7,12.2-4.6c1.8-0.9,3.3-2.1,4.6-3.3
					c1.3-1.3,2.2-2.7,2.9-4.3c1.3-3.2,1.4-7.2,1-11.3c-0.4-4.1-1.5-8.4-2.7-12.7L546.6,257.6z"/>
			</g>
			<g>
				<path class="st5" d="M571.6,259.7c-0.8,4.4-1.3,8.8-1.3,12.9c-0.1,4.2,0.6,8.1,2.2,11.2c1.7,3.1,4.5,5.4,8.3,7.1
					c3.8,1.7,8.1,2.7,12.5,3.8v1.4c-4.5,1.2-9.4,1.5-14.4,0.4c-2.4-0.6-5-1.5-7.2-3.1c-2.2-1.5-4.2-3.6-5.6-6.1
					c-1.3-2.4-2.1-5.1-2.4-7.7c-0.2-2.7-0.1-5.2,0.3-7.6c0.4-2.4,1.2-4.8,2.1-7c1-2.2,2-4.3,3.5-6.3L571.6,259.7z"/>
			</g>
			<g>
				<path class="st5" d="M572.1,347.4c-3.2-3.6-5.5-7.8-6.8-12.6c-0.7-2.3-1.1-4.9-1.1-7.5s0.4-5.3,1.5-8c1.1-2.5,2.9-4.9,5-6.6
					c2.1-1.8,4.5-3,7-3.6c4.9-1.5,9.7-1.5,14.4-0.7l0.1,1.4c-4.4,1.4-8.6,2.7-12.2,4.6c-1.8,0.9-3.3,2.1-4.6,3.3
					c-1.3,1.3-2.2,2.7-2.9,4.3c-1.3,3.2-1.4,7.2-1,11.3c0.4,4.1,1.5,8.4,2.7,12.7L572.1,347.4z"/>
			</g>
			<g>
				<path class="st5" d="M547,345.3c0.8-4.4,1.3-8.8,1.3-12.9c0.1-4.2-0.6-8.1-2.2-11.2c-1.7-3.1-4.5-5.4-8.3-7.1
					c-3.8-1.7-8.1-2.7-12.5-3.8V309c4.5-1.2,9.4-1.5,14.4-0.4c2.4,0.6,5,1.5,7.2,3.1c2.2,1.5,4.2,3.6,5.6,6.1
					c1.3,2.4,2.1,5.1,2.4,7.7c0.2,2.7,0.1,5.2-0.3,7.6s-1.2,4.8-2.1,7c-1,2.2-2,4.3-3.5,6.3L547,345.3z"/>
			</g>
			<line class="st8" x1="525.9" y1="347.5" x2="508.7" y2="391.1"/>
			<line class="st8" x1="543.3" y1="360.8" x2="520.2" y2="419.9"/>
		</g>
		<g>
			<g>
				<path class="st9" d="M377,125.7c0,0-119,9.3-35.7,100s214.5,4.9,214.5,4.9L377,125.7z"/>
				<path class="st10" d="M526.7,17.2C446.5,17.2,381,54.3,377,125.7c139,141.7,253.7,103.6,266.9,110.5c20.4-23,32.6-52.2,32.6-84
					C676.6,77.6,609.5,17.2,526.7,17.2z"/>
				<path class="st11" d="M673.5,192.2c-5.2,21.8-10.5,41.2-20.7,52.2c-36.1,0-65.1-6.7-65.1-6.7c15-133.8-27.3-217-27.3-217
					s14.4-0.2,40.1,11.5C619.8,41,703.1,67.6,673.5,192.2z"/>
			</g>
			<line class="st12" x1="575" y1="57.5" x2="591.5" y2="30"/>
			<line class="st12" x1="583.3" y1="89.6" x2="620.8" y2="45.6"/>
			<line class="st12" x1="589.4" y1="130.4" x2="654.3" y2="67.6"/>
			<line class="st12" x1="589.4" y1="179.2" x2="671.6" y2="105.8"/>
			<line class="st12" x1="588.7" y1="225.7" x2="681" y2="145.5"/>
			<path class="st13" d="M566.3,20.7c0,0,84.9,90.6,48,219.7l63.5-61.1"/>
			<path class="st12" d="M607.9,37.8c0,0,85.9,82.5,38,202.6"/>
			<ellipse class="st5" cx="569.2" cy="8.6" rx="13.4" ry="8.6"/>
		</g>
	</g>
</g>
<g>
	<g>
		<path class="st5" d="M548.1,62.8c-14.4,17.5-27.8,35.4-38.3,55.4c-10.5,19.9-18.1,40.8-24.8,62.3c-2.8-1.4-5.7-2.7-8.4-4.1
			c-10.5-5.4-20.7-11.3-30.4-18.2c-5.8-4.1-11.5-8.4-17.3-12.6c-3-2.2-5.9-4.3-8.8-6.6c-0.3-0.2-0.5-0.8-0.4-1.1
			c2.3-7.6,4.6-15.2,7-22.8c2.6-8.4,5.3-16.8,9.1-24.8c2.9-5.9,5.9-11.8,9.3-17.5c3.5-5.8,7.6-11.3,11.4-16.9c0.3-0.4,0.9-0.9,1.4-1
			c4.6-0.9,9.3-1.8,14-2.7c6-1,12.1-1.4,18.2-1.4c6.1-0.1,12.2,0.4,18.2,1.1C522,53.7,535,57.7,548.1,62.8z M512.3,100.6
			c-0.4-0.2-0.7-0.5-1.1-0.5c-5.4-1.3-10.8-2.5-16.2-3.7c-0.7-0.2-1.1,0-1.4,0.6c-4,7.7-8,15.3-12,23c-0.7,1.3-0.6,1.6,0.8,1.9
			c4.9,1.5,9.9,2.9,14.9,4.4c1,0.3,1.3,0,1.8-0.8c4.2-7.9,8.5-15.8,12.8-23.8C512,101.3,512.1,101.1,512.3,100.6z M513.9,73.5
			c0.5-0.8,0.9-1.4,1.2-2c0.4-0.9,1-1.2,2-0.9c4,1.1,8,2.1,12,3.2c0.8,0.2,1.2,0.1,1.7-0.6c0.9-1.4,1.9-2.7,2.9-4
			c0.9-1.2,0.9-1.3-0.5-1.7c-5.8-1.6-11.7-3.1-17.5-4.7c-1.1-0.3-1.7,0-2.3,0.9c-2,3.4-4.1,6.7-6.2,10.1c-0.8,1.3-1.6,2.6-2.4,4
			c4.6,1.1,9,2.1,13.7,3.1c-0.5,0.9-0.9,1.5-1.2,2.1c-0.5,1-1.1,1.1-2.1,0.9c-3.8-0.9-7.6-1.7-11.3-2.6c-0.8-0.2-1.3,0-1.6,0.7
			c-0.8,1.5-1.7,3-2.6,4.4c-0.5,0.8-0.4,1.1,0.6,1.4c5.7,1.2,11.3,2.5,16.9,3.8c0.7,0.2,1,0,1.4-0.6c2.1-3.1,4.2-6.3,6.4-9.4
			c1-1.5,2-2.9,3.2-4.7C523.2,75.8,518.7,74.7,513.9,73.5z M481.8,165.9c0.2-0.5,0.4-1,0.6-1.4c2.2-5.6,4.4-11.3,6.6-16.9
			c1.4-3.5,3-6.9,4.5-10.4c0.4-1,0.3-1.5-0.8-1.7c-1-0.3-2.1-0.6-3.1-1c-0.7-0.2-1-0.1-1.3,0.6c-1.2,2.7-2.5,5.4-3.7,8.1
			c-0.3,0.7-0.6,0.9-1.3,0.6c-1.6-0.6-3.1-1.2-4.7-1.8c-1.4-0.5-1.5-0.6-0.8-2c1.1-2.3,2.2-4.6,3.4-6.8c0.5-0.9,0.3-1.4-0.8-1.7
			c-0.9-0.2-1.8-0.6-2.7-1c-0.8-0.4-1.3-0.2-1.6,0.7c-2.1,4.8-4.3,9.6-6.6,14.4c-0.4,0.8-0.1,1.2,0.6,1.5c2.7,1.1,5.5,2.3,8.2,3.4
			c2.8,1.2,2.8,1.2,1.7,4c-0.3,0.9-0.7,1-1.5,0.6c-3.3-1.5-6.6-3-9.9-4.4c-0.4-0.2-0.8-0.3-1.3-0.5c-0.9,2-1.7,4-2.6,5.9
			c-0.5,1-0.3,1.5,0.7,2c5.1,2.4,10.1,4.9,15.2,7.4C481,165.6,481.4,165.7,481.8,165.9z M492.7,59.8c-1.7-0.1-3-0.1-4.3-0.4
			c-1.3-0.3-1.9,0.2-2.5,1.2c-2.4,4.3-4.8,8.5-7.2,12.8c-0.2,0.3-0.3,0.6-0.4,0.9c4.6,0.5,9,1,13.7,1.5c-0.4,0.8-0.7,1.4-1,2
			c-0.4,1-1.1,1.3-2.2,1.1c-3.8-0.5-7.6-0.9-11.4-1.4c-0.7-0.1-1.2,0.1-1.5,0.8c-0.5,1-1.1,2-1.7,3c-0.4,0.7-0.7,1.4-1.1,2.3
			c2.3,0.2,4.2,0.4,6.2,0.6c4,0.6,8,1.2,12,1.8c0.8,0.1,1.2-0.1,1.6-0.8c4.5-7.6,9-15.2,13.4-22.9c0.2-0.3,0.3-0.8,0.4-1.2
			c-1.8-0.3-3.3-0.6-4.9-0.8c-0.4,0-1,0.3-1.2,0.6c-1.2,1.9-2.4,3.9-3.6,5.9c-0.9,1.5-1.7,2.9-3.8,2.1c-0.2-0.1-0.4,0-0.6,0
			c-1.6-0.2-3.3-0.4-5.1-0.6C489.3,65.5,490.9,62.8,492.7,59.8z M487.5,94.9c-0.5-0.2-0.8-0.3-1.1-0.3c-5.6-0.9-11.1-1.8-16.7-2.8
			c-0.8-0.1-1.1,0.1-1.4,0.7c-2.8,5.6-5.6,11.2-8.3,16.8c-0.9,1.7-1.6,3.5-2.5,5.5c1,0.3,1.8,0.6,2.7,0.8c1.7,0.4,1.7,0.4,2.4-1.1
			c2.4-4.9,4.8-9.9,7.1-14.8c0.5-1.1,1.1-1.3,2.1-1c1.7,0.4,3.4,0.7,5.1,1.1c2.2,0.5,2.1,0.5,1.1,2.6c-0.4,0.9-0.9,1-1.8,0.8
			c-1.3-0.4-2.7-0.5-4-0.9c-0.8-0.3-1.2,0.1-1.5,0.7c-1.1,2.3-2.2,4.6-3.4,6.9c-1,2-1.9,3.9-2.8,5.9c-0.2,0.5-0.4,0.9,0.4,1.2
			c2.9,0.8,5.8,1.7,8.7,2.5c0.8,0.2,1.1,0,1.5-0.7c0.6-1.3,1.2-2.6,1.9-3.9c0.8-1.6,0.8-1.6-0.9-2.1c-1.5-0.4-2.9-0.8-4.5-1.3
			c0.4-0.9,0.7-1.7,1.2-2.4c0.2-0.3,0.7-0.5,1-0.4c1.6,0.3,3.1,0.7,4.6,1.1c0.8,0.2,1.2,0.1,1.5-0.7c0.8-1.6,1.6-3.2,2.5-4.8
			C484.2,101.2,485.8,98.1,487.5,94.9z M447.1,147.8c0.2-0.5,0.4-0.8,0.6-1.2c2.4-5.3,4.8-10.5,7.2-15.9c0.5-1.1,1-0.7,1.8-0.5
			c0.9,0.3,0.7,0.9,0.4,1.5c-0.5,1.1-1,2.2-1.5,3.4c-1.9,4.2-3.9,8.4-5.8,12.7c-0.2,0.4-0.1,1.2,0.1,1.4c0.9,0.7,2,1.2,3,1.8
			c2.9-6.3,5.8-12.5,8.7-18.7c2.2,0.7,2.2,0.7,1.3,2.6c-2.5,5.4-5,10.8-7.4,16.2c-0.2,0.4-0.2,1.2,0,1.3c0.9,0.7,2,1.2,3,1.8
			c0.2-0.3,0.3-0.4,0.4-0.5c3.8-8.2,7.6-16.4,11.4-24.6c0.4-0.8,0.1-1.2-0.7-1.5c-4.8-1.6-9.6-3.3-14.3-5c-0.8-0.3-1.2-0.1-1.5,0.7
			c-2.9,6.6-5.9,13.2-8.8,19.8c-1.1,2.5-1.1,2.5,1.3,4C446.4,147.4,446.7,147.6,447.1,147.8z M465.1,73.9c-0.3,2.1-1.1,2.9-3,2.9
			c-4-0.1-7.9-0.1-11.9-0.2c-0.4,0-0.9,0-1.1,0.3c-0.9,1.6-1.8,3.2-2.8,5c0.8,0.1,1.2,0.2,1.7,0.2c1.6,0,3.1-0.1,4.7,0
			c4.2,0.2,8.4,0.5,12.7,0.8c0.7,0.1,1.2-0.1,1.5-0.8c2.2-4.1,4.5-8.1,6.7-12.1c0.2-0.3,0.3-0.6,0.5-1.1c-4.9,0-9.5,0-14.3,0
			c0.7-1.1,0.8-2.6,2.3-2.7c3.3-0.3,6.7-0.7,10-0.4c3.2,0.3,5-0.6,6.1-3.5c0.3-0.9,0.9-1.6,1.4-2.6c-2.7,0-5.2-0.1-7.6,0
			c-4.1,0.3-8.3,0.7-12.4,1.2c-0.4,0-1,0.4-1.2,0.8c-2.4,3.8-4.7,7.6-7.1,11.5c-0.2,0.3-0.2,0.5-0.4,0.9
			C455.8,73.9,460.4,73.9,465.1,73.9z M438.9,142.8c0.2-0.4,0.4-0.6,0.5-0.8c2.9-6.7,5.8-13.5,8.7-20.2c0.4-0.9,0.1-1.4-0.9-1.7
			c-4.6-1.5-9.2-3-13.8-4.6c-0.8-0.3-1.1,0-1.4,0.7c-0.6,1.9-1.3,3.8-1.9,5.6c-1.3,3.9-2.7,7.7-4,11.5c-0.4,1-0.2,1.6,0.8,2.2
			c3.3,2,6.6,4,9.9,6C437.4,142,438.1,142.4,438.9,142.8z M439.8,109.9c0.2-0.4,0.4-0.7,0.5-1c0.7-1.6,1.3-3.2,2-4.7
			c0.2-0.4,0.8-0.8,1.1-0.7c1.9,0.3,3.7,0.7,5.5,1c0.9,0.2,0.9,0.6,0.6,1.3c-0.8,1.6-1.4,3.2-2.2,4.8c-0.4,0.8-0.2,1.2,0.6,1.4
			c1.2,0.4,2.5,0.8,3.8,1.2c3.5-7.5,7.1-14.9,10.7-22.5c-1.3-0.1-2.5-0.2-3.7-0.3c-4.3-0.4-8.7-0.8-13-1.4c-2.3-0.4-3.2,0.5-3.9,2.5
			c-2.1,5.4-4.3,10.7-6.6,16.1c-0.3,0.8,0,1.2,0.7,1.4C437.1,109.2,438.3,109.5,439.8,109.9z"/>
		<path class="st14" d="M512.3,100.6c-0.2,0.5-0.4,0.7-0.5,1c-4.3,7.9-8.6,15.8-12.8,23.8c-0.5,0.9-0.8,1.1-1.8,0.8
			c-4.9-1.5-9.9-2.9-14.9-4.4c-1.3-0.4-1.5-0.7-0.8-1.9c4-7.7,8-15.3,12-23c0.3-0.7,0.7-0.8,1.4-0.6c5.4,1.3,10.8,2.5,16.2,3.7
			C511.6,100.1,512,100.4,512.3,100.6z"/>
		<path class="st14" d="M513.9,73.5c4.7,1.2,9.2,2.3,14,3.5c-1.2,1.8-2.2,3.3-3.2,4.7c-2.1,3.1-4.3,6.3-6.4,9.4
			c-0.4,0.5-0.7,0.7-1.4,0.6c-5.6-1.3-11.3-2.6-16.9-3.8c-1-0.2-1.1-0.6-0.6-1.4c0.9-1.5,1.8-2.9,2.6-4.4c0.4-0.7,0.9-0.9,1.6-0.7
			c3.8,0.9,7.6,1.7,11.3,2.6c1,0.2,1.7,0.1,2.1-0.9c0.3-0.7,0.7-1.3,1.2-2.1c-4.7-1.1-9.1-2.1-13.7-3.1c0.8-1.4,1.6-2.7,2.4-4
			c2.1-3.4,4.2-6.7,6.2-10.1c0.6-1,1.2-1.3,2.3-0.9c5.8,1.6,11.7,3.1,17.5,4.7c1.4,0.4,1.4,0.6,0.5,1.7c-1,1.3-2,2.6-2.9,4
			c-0.4,0.7-0.9,0.8-1.7,0.6c-4-1.1-8-2.1-12-3.2c-1-0.3-1.6,0-2,0.9C514.9,72.1,514.4,72.7,513.9,73.5z"/>
		<path class="st14" d="M481.8,165.9c-0.5-0.2-0.8-0.3-1.2-0.5c-5.1-2.5-10.1-4.9-15.2-7.4c-1-0.5-1.2-1-0.7-2
			c0.9-1.9,1.7-3.8,2.6-5.9c0.5,0.2,0.9,0.4,1.3,0.5c3.3,1.5,6.6,2.9,9.9,4.4c0.8,0.4,1.1,0.3,1.5-0.6c1.1-2.8,1.1-2.8-1.7-4
			c-2.7-1.1-5.4-2.3-8.2-3.4c-0.8-0.3-1-0.7-0.6-1.5c2.2-4.8,4.4-9.6,6.6-14.4c0.4-0.9,0.8-1,1.6-0.7c0.9,0.4,1.8,0.7,2.7,1
			c1.1,0.3,1.2,0.8,0.8,1.7c-1.2,2.3-2.3,4.5-3.4,6.8c-0.7,1.4-0.6,1.4,0.8,2c1.6,0.6,3.2,1.1,4.7,1.8c0.7,0.3,1,0.1,1.3-0.6
			c1.2-2.7,2.5-5.4,3.7-8.1c0.3-0.7,0.6-0.8,1.3-0.6c1,0.4,2,0.7,3.1,1s1.2,0.8,0.8,1.7c-1.5,3.5-3.1,6.9-4.5,10.4
			c-2.3,5.6-4.4,11.3-6.6,16.9C482.2,164.9,482,165.3,481.8,165.9z"/>
		<path class="st14" d="M492.7,59.8c-1.8,3-3.4,5.7-5.2,8.7c1.9,0.2,3.5,0.4,5.1,0.6c0.2,0,0.4-0.1,0.6,0c2.1,0.9,3-0.5,3.8-2.1
			c1.1-2,2.3-4,3.6-5.9c0.2-0.3,0.8-0.6,1.2-0.6c1.6,0.2,3.1,0.5,4.9,0.8c-0.2,0.5-0.2,0.9-0.4,1.2c-4.5,7.6-9,15.2-13.4,22.9
			c-0.4,0.7-0.8,0.9-1.6,0.8c-4-0.6-8-1.3-12-1.8c-2-0.3-4-0.4-6.2-0.6c0.4-0.9,0.8-1.6,1.1-2.3c0.5-1,1.2-2,1.7-3
			c0.3-0.7,0.8-0.9,1.5-0.8c3.8,0.5,7.6,0.8,11.4,1.4c1.2,0.2,1.8-0.1,2.2-1.1c0.2-0.6,0.5-1.1,1-2c-4.7-0.5-9.1-1-13.7-1.5
			c0.1-0.3,0.2-0.6,0.4-0.9c2.4-4.3,4.8-8.5,7.2-12.8c0.6-1.1,1.2-1.5,2.5-1.2C489.6,59.7,491,59.7,492.7,59.8z"/>
		<path class="st14" d="M487.5,94.9c-1.7,3.2-3.3,6.3-4.9,9.4c-0.8,1.6-1.7,3.2-2.5,4.8c-0.3,0.7-0.7,0.9-1.5,0.7
			c-1.5-0.4-3.1-0.8-4.6-1.1c-0.3-0.1-0.8,0.2-1,0.4c-0.4,0.7-0.7,1.5-1.2,2.4c1.6,0.5,3,0.9,4.5,1.3c1.7,0.5,1.7,0.5,0.9,2.1
			c-0.6,1.3-1.3,2.5-1.9,3.9c-0.3,0.7-0.7,0.9-1.5,0.7c-2.9-0.9-5.8-1.7-8.7-2.5c-0.8-0.2-0.6-0.7-0.4-1.2c0.9-2,1.9-4,2.8-5.9
			c1.1-2.3,2.2-4.6,3.4-6.9c0.3-0.6,0.6-1,1.5-0.7c1.3,0.4,2.7,0.6,4,0.9c0.9,0.2,1.4,0.1,1.8-0.8c1-2.1,1.1-2-1.1-2.6
			c-1.7-0.4-3.4-0.7-5.1-1.1c-1-0.2-1.6,0-2.1,1c-2.3,5-4.8,9.9-7.1,14.8c-0.7,1.5-0.7,1.5-2.4,1.1c-0.9-0.2-1.7-0.5-2.7-0.8
			c0.9-1.9,1.6-3.7,2.5-5.5c2.7-5.6,5.5-11.2,8.3-16.8c0.3-0.6,0.5-0.9,1.4-0.7c5.5,1,11.1,1.8,16.7,2.8
			C486.7,94.6,487,94.7,487.5,94.9z"/>
		<path class="st14" d="M447.1,147.8c-0.4-0.3-0.7-0.4-1-0.6c-2.4-1.5-2.4-1.5-1.3-4c2.9-6.6,5.9-13.2,8.8-19.8
			c0.3-0.8,0.7-1,1.5-0.7c4.8,1.7,9.6,3.4,14.3,5c0.8,0.3,1.1,0.6,0.7,1.5c-3.8,8.2-7.6,16.4-11.4,24.6c-0.1,0.1-0.2,0.3-0.4,0.5
			c-1-0.6-2.1-1.1-3-1.8c-0.2-0.2-0.2-1,0-1.3c2.4-5.4,4.9-10.8,7.4-16.2c0.9-1.9,0.9-1.9-1.3-2.6c-2.9,6.2-5.7,12.3-8.7,18.7
			c-1.1-0.6-2.1-1.1-3-1.8c-0.3-0.2-0.3-1-0.1-1.4c1.9-4.2,3.9-8.5,5.8-12.7c0.5-1.1,1-2.2,1.5-3.4c0.3-0.6,0.5-1.2-0.4-1.5
			c-0.7-0.3-1.3-0.6-1.8,0.5c-2.3,5.3-4.8,10.6-7.2,15.9C447.5,147,447.3,147.4,447.1,147.8z"/>
		<path class="st14" d="M465.1,73.9c-4.7,0-9.3,0-14.1,0c0.1-0.3,0.2-0.6,0.4-0.9c2.3-3.8,4.7-7.7,7.1-11.5c0.2-0.4,0.8-0.7,1.2-0.8
			c4.1-0.4,8.2-0.9,12.4-1.2c2.4-0.2,4.9,0,7.6,0c-0.5,1-1.1,1.7-1.4,2.6c-1.1,2.9-2.9,3.8-6.1,3.5c-3.3-0.3-6.7,0.1-10,0.4
			c-1.4,0.1-1.6,1.6-2.3,2.7c4.8,0,9.5,0,14.3,0c-0.2,0.5-0.3,0.9-0.5,1.1c-2.2,4-4.5,8.1-6.7,12.1c-0.4,0.7-0.8,0.9-1.5,0.8
			c-4.2-0.3-8.4-0.6-12.7-0.8c-1.6-0.1-3.1,0-4.7,0c-0.5,0-0.9-0.1-1.7-0.2c1-1.8,1.8-3.4,2.8-5c0.1-0.2,0.7-0.3,1.1-0.3
			c4,0,7.9,0.1,11.9,0.2C464,76.8,464.8,76,465.1,73.9z"/>
		<path class="st14" d="M438.9,142.8c-0.8-0.4-1.5-0.8-2.2-1.2c-3.3-2-6.6-4-9.9-6c-0.9-0.6-1.1-1.2-0.8-2.2c1.4-3.8,2.7-7.7,4-11.5
			c0.7-1.9,1.3-3.7,1.9-5.6c0.2-0.8,0.6-1,1.4-0.7c4.6,1.6,9.2,3.1,13.8,4.6c0.9,0.3,1.2,0.8,0.9,1.7c-2.9,6.7-5.8,13.5-8.7,20.2
			C439.3,142.2,439.1,142.4,438.9,142.8z"/>
		<path class="st14" d="M439.8,109.9c-1.4-0.4-2.7-0.7-3.9-1.1c-0.7-0.2-1.1-0.5-0.7-1.4c2.2-5.4,4.5-10.7,6.6-16.1
			c0.8-1.9,1.6-2.8,3.9-2.5c4.3,0.7,8.7,1,13,1.4c1.2,0.1,2.4,0.2,3.7,0.3c-3.6,7.6-7.1,15-10.7,22.5c-1.3-0.4-2.5-0.8-3.8-1.2
			c-0.8-0.2-1-0.6-0.6-1.4c0.7-1.6,1.4-3.2,2.2-4.8c0.4-0.8,0.3-1.2-0.6-1.3c-1.8-0.3-3.7-0.8-5.5-1c-0.3-0.1-1,0.4-1.1,0.7
			c-0.7,1.5-1.3,3.1-2,4.7C440.1,109.2,439.9,109.5,439.8,109.9z M445.1,97.2c2.5,0.4,4.7,0.8,6.9,1.2c0.3,0,0.9,0,1-0.3
			c0.4-0.6,0.7-1.4,1.1-2.3c-2.6-0.4-5-0.8-7.3-1.2c-0.2,0-0.4,0.1-0.5,0.2C445.8,95.6,445.5,96.4,445.1,97.2z"/>
		<path d="M445.1,97.2c0.4-0.8,0.7-1.6,1.1-2.4c0.1-0.1,0.3-0.2,0.5-0.2c2.4,0.4,4.8,0.8,7.3,1.2c-0.4,1-0.7,1.7-1.1,2.3
			c-0.1,0.2-0.7,0.3-1,0.3C449.7,98,447.5,97.6,445.1,97.2z"/>
	</g>
</g>
</svg>
