<?xml version="1.0" encoding="utf-8"?>
<!-- Generator: Adobe Illustrator 25.3.1, SVG Export Plug-In . SVG Version: 6.00 Build 0)  -->
<svg version="1.1" id="Layer_1" xmlns="http://www.w3.org/2000/svg" xmlns:xlink="http://www.w3.org/1999/xlink" x="0px" y="0px"
	 viewBox="0 0 1904.9 1787.5" style="enable-background:new 0 0 1904.9 1787.5;" xml:space="preserve">
<style type="text/css">
	.st0{display:none;}
	.st1{fill:#5B89BC;}
	.st2{fill:#C4E3F8;stroke:#3A5BA6;stroke-width:5;stroke-miterlimit:10;}
	.st3{fill:none;stroke:#3A5BA6;stroke-width:7;stroke-miterlimit:10;}
	.st4{fill:#79A3D7;stroke:#3A5BA6;stroke-width:5;stroke-miterlimit:10;}
	.st5{fill:#3A5BA6;stroke:#C4E3F8;stroke-width:4;stroke-miterlimit:10;}
	.st6{fill:#C4E3F8;}
	.st7{fill:none;stroke:#C4E3F8;stroke-width:7;stroke-linecap:round;stroke-linejoin:round;stroke-miterlimit:10;}
	.st8{fill:#3A5BA6;}
</style>
<g id="Capa_1" class="st0">
	
		<image style="display:inline;overflow:visible;enable-background:new    ;" width="1668" height="2388" xlink:href="81505E38C12EAB21.jpeg"  transform="matrix(1.1291 0 0 1.1291 0 -300)">
	</image>
</g>
<g id="Fondo">
	<g>
		<rect x="630.9" y="394" class="st1" width="648" height="909"/>
		<polygon class="st2" points="1282.5,1237 639.1,1240.3 2.6,1791.3 1907.5,1791.3 		"/>
		<g>
			<g>
				<line class="st3" x1="784.5" y1="1237" x2="499.3" y2="1787.5"/>
				<line class="st3" x1="1060.1" y1="1237" x2="1345.3" y2="1787.5"/>
				<line class="st3" x1="516" y1="1342.4" x2="1418.4" y2="1342.4"/>
				<line class="st3" x1="290.9" y1="1540.2" x2="1619.2" y2="1540.2"/>
			</g>
		</g>
		<g>
			<polygon class="st4" points="649.9,1240 0,1787.5 0,0 657.4,430 			"/>
			<polygon class="st5" points="601,1215 54.9,1685.5 54.9,102 607.6,457.5 			"/>
			<g>
				<polygon class="st6" points="243.1,1525.5 223.5,1540.2 232.7,216.4 256.6,228.5 				"/>
			</g>
			<g>
				<polygon class="st6" points="471,1329.5 449,1342.4 456.5,360.3 480.4,374.2 				"/>
			</g>
			<line class="st7" x1="54.9" y1="250" x2="606.9" y2="538"/>
			<line class="st7" x1="54.9" y1="448" x2="607.6" y2="599.4"/>
			<line class="st7" x1="54.9" y1="610" x2="605.8" y2="668.5"/>
			<line class="st7" x1="54.9" y1="740.5" x2="605.2" y2="740.5"/>
			<line class="st7" x1="54.9" y1="852.2" x2="607.6" y2="810.2"/>
			<line class="st7" x1="54.9" y1="990.2" x2="607.6" y2="893.8"/>
			<line class="st7" x1="54.9" y1="1127.5" x2="603.2" y2="962"/>
			<line class="st7" x1="54.9" y1="1267" x2="605.8" y2="1044.7"/>
			<line class="st7" x1="54.9" y1="1417.7" x2="601.9" y2="1107.2"/>
			<line class="st7" x1="54.9" y1="1561.7" x2="601.5" y2="1155.9"/>
		</g>
		<g>
			<polygon class="st4" points="1255,1240 1904.9,1787.5 1904.9,0 1247.5,430 			"/>
			<polygon class="st5" points="1303.9,1215 1850,1685.5 1850,102 1297.3,457.5 			"/>
			<g>
				<polygon class="st6" points="1661.8,1525.5 1681.4,1540.2 1672.2,216.4 1648.3,228.5 				"/>
			</g>
			<g>
				<polygon class="st6" points="1433.9,1329.5 1455.9,1342.4 1448.4,360.3 1424.5,374.2 				"/>
			</g>
			<line class="st7" x1="1850" y1="250" x2="1298" y2="538"/>
			<line class="st7" x1="1850" y1="448" x2="1297.3" y2="599.4"/>
			<line class="st7" x1="1850" y1="610" x2="1299.1" y2="668.5"/>
			<line class="st7" x1="1850" y1="740.5" x2="1299.8" y2="740.5"/>
			<line class="st7" x1="1850" y1="852.2" x2="1297.3" y2="810.2"/>
			<line class="st7" x1="1850" y1="990.2" x2="1297.3" y2="893.8"/>
			<line class="st7" x1="1850" y1="1127.5" x2="1301.7" y2="962"/>
			<line class="st7" x1="1850" y1="1267" x2="1299.1" y2="1044.7"/>
			<line class="st7" x1="1850" y1="1417.7" x2="1303" y2="1107.2"/>
			<line class="st7" x1="1850" y1="1561.7" x2="1303.4" y2="1155.9"/>
		</g>
		<polygon class="st8" points="1247.5,430 657.4,430 0,0 1904.9,0 		"/>
		<polygon class="st6" points="223.5,55 684.9,394 840.9,394 657.4,55 		"/>
		<polygon class="st6" points="1716.9,55 1255.5,394 1099.5,394 1283,55 		"/>
		<polygon class="st6" points="725.4,55 1209.1,55 1078.6,394 869.4,394 		"/>
	</g>
</g>
</svg>
